<mxfile host="app.diagrams.net" agent="Mozilla/5.0 (X11; Linux x86_64) AppleWebKit/537.36 (KHTML, like Gecko) Chrome/132.0.0.0 Safari/537.36 Edg/132.0.0.0" version="26.0.11">
  <diagram id="KrRe8aqyr2L3FqvC5Tcy" name="PÃ¡gina-1">
    <mxGraphModel dx="1794" dy="2440" grid="1" gridSize="10" guides="1" tooltips="1" connect="1" arrows="1" fold="1" page="0" pageScale="1" pageWidth="827" pageHeight="1169" background="none" math="0" shadow="0">
      <root>
        <mxCell id="0" />
        <mxCell id="1" parent="0" />
        <mxCell id="30JF-nldkezfp1qGNIKy-13" value="&lt;span style=&quot;font-size: 24px;&quot;&gt;Views&lt;/span&gt;" style="shape=folder;fontStyle=1;tabWidth=270;tabHeight=50;tabPosition=left;html=1;boundedLbl=1;labelInHeader=1;container=1;collapsible=0;whiteSpace=wrap;" parent="1" vertex="1">
          <mxGeometry x="910" y="1450" width="940" height="1020" as="geometry" />
        </mxCell>
        <mxCell id="node18" value="&lt;p style=&quot;margin:0px;margin-top:4px;text-align:center;&quot;&gt;&lt;b&gt;BaseView&lt;/b&gt;&lt;/p&gt;&lt;hr size=&quot;1&quot;&gt;&lt;p style=&quot;margin:0 0 0 4px;line-height:1.6;&quot;&gt;# &lt;u&gt;ERRO_NAO_ENCONTRADO&lt;/u&gt;: String&lt;/p&gt;&lt;p style=&quot;margin:0 0 0 4px;line-height:1.6;&quot;&gt;# &lt;u&gt;ERRO_ENTRADA_INVALIDA&lt;/u&gt;: String&lt;/p&gt;&lt;p style=&quot;margin:0 0 0 4px;line-height:1.6;&quot;&gt;# &lt;u&gt;SUCESSO_ADICIONAR&lt;/u&gt;: String&lt;/p&gt;&lt;p style=&quot;margin:0 0 0 4px;line-height:1.6;&quot;&gt;# &lt;u&gt;SUCESSO_ATUALIZAR&lt;/u&gt;: String&lt;/p&gt;&lt;p style=&quot;margin:0 0 0 4px;line-height:1.6;&quot;&gt;# &lt;u&gt;SUCESSO_REMOVER&lt;/u&gt;: String&lt;/p&gt;&lt;p style=&quot;margin:0 0 0 4px;line-height:1.6;&quot;&gt;# &lt;u&gt;CONFIRMAR_REMOCAO&lt;/u&gt;: String&lt;/p&gt;&lt;hr size=&quot;1&quot;&gt;&lt;p style=&quot;margin:0 0 0 4px;line-height:1.6;&quot;&gt;# readInt(prompt: String): int&lt;br&gt;# readString(prompt: String): String&lt;/p&gt;&lt;p style=&quot;margin:0 0 0 4px;line-height:1.6;&quot;&gt;# readDouble(prompt: String): Double&lt;br&gt;# readDate(String): Date&lt;/p&gt;&lt;p style=&quot;margin:0 0 0 4px;line-height:1.6;&quot;&gt;# showError(message: String): void&lt;/p&gt;&lt;p style=&quot;margin:0 0 0 4px;line-height:1.6;&quot;&gt;# showSuccess(message: String): void&lt;/p&gt;&lt;p style=&quot;margin:0 0 0 4px;line-height:1.6;&quot;&gt;# showMessage(message: String): void&lt;/p&gt;&lt;p style=&quot;margin:0 0 0 4px;line-height:1.6;&quot;&gt;# showConfirmation(message: String)&lt;/p&gt;&lt;p style=&quot;margin:0 0 0 4px;line-height:1.6;&quot;&gt;# fromatDate(date: Date): String&lt;/p&gt;" style="verticalAlign=top;align=left;overflow=fill;fontSize=14;fontFamily=Helvetica;html=1;rounded=0;shadow=0;comic=0;labelBackgroundColor=none;strokeWidth=1;" parent="30JF-nldkezfp1qGNIKy-13" vertex="1">
          <mxGeometry x="30" y="59.99916030534351" width="282" height="299.91603053435114" as="geometry" />
        </mxCell>
        <mxCell id="node26" value="&lt;p style=&quot;margin:0px;margin-top:4px;text-align:center;&quot;&gt;&lt;b&gt;PrescricaoView&lt;/b&gt;&lt;/p&gt;&lt;hr size=&quot;1&quot;/&gt;&lt;p style=&quot;margin:0 0 0 4px;line-height:1.6;&quot;&gt;+ PrescricaoView(PrescricaoController, MedicamentoController, ExameController): &lt;/p&gt;&lt;hr size=&quot;1&quot;/&gt;&lt;p style=&quot;margin:0 0 0 4px;line-height:1.6;&quot;&gt;+ showMenu(): void&lt;br/&gt;- readDoubleInput(String): Double&lt;br/&gt;- removePrescricao(): void&lt;br/&gt;- listAllPrescricoes(): void&lt;br/&gt;- updatePrescricao(): void&lt;br/&gt;- searchPrescricaoById(): void&lt;br/&gt;- addPrescricao(): void&lt;/p&gt;&lt;hr size=&quot;1&quot;/&gt;&lt;p style=&quot;margin:0 0 0 4px;line-height:1.6;&quot;&gt; examesFromUser: ArrayList&amp;lt;Exame&amp;gt;&lt;br/&gt; medicamentosFromUser: ArrayList&amp;lt;Medicamento&amp;gt;&lt;/p&gt;" style="verticalAlign=top;align=left;overflow=fill;fontSize=14;fontFamily=Helvetica;html=1;rounded=0;shadow=0;comic=0;labelBackgroundColor=none;strokeWidth=1;" parent="30JF-nldkezfp1qGNIKy-13" vertex="1">
          <mxGeometry x="467" y="84.80999999999995" width="433" height="292" as="geometry" />
        </mxCell>
        <mxCell id="edge17" value="" style="html=1;rounded=1;edgeStyle=orthogonalEdgeStyle;dashed=0;startArrow=none;endArrow=block;endSize=12;strokeColor=#000082;" parent="30JF-nldkezfp1qGNIKy-13" source="node26" target="node18" edge="1">
          <mxGeometry width="50" height="50" relative="1" as="geometry">
            <Array as="points">
              <mxPoint x="450" y="235" />
              <mxPoint x="450" y="235" />
            </Array>
          </mxGeometry>
        </mxCell>
        <mxCell id="piTqAlaF3GWimsGXBwTf-17" value="extends" style="edgeLabel;html=1;align=center;verticalAlign=middle;resizable=0;points=[];" parent="edge17" vertex="1" connectable="0">
          <mxGeometry x="-0.5632" y="1" relative="1" as="geometry">
            <mxPoint as="offset" />
          </mxGeometry>
        </mxCell>
        <mxCell id="node19" value="&lt;p style=&quot;margin:0px;margin-top:4px;text-align:center;&quot;&gt;&lt;b&gt;PacienteView&lt;/b&gt;&lt;/p&gt;&lt;hr size=&quot;1&quot;&gt;&lt;p style=&quot;margin:0 0 0 4px;line-height:1.6;&quot;&gt;&lt;span style=&quot;background-color: transparent; color: light-dark(rgb(0, 0, 0), rgb(255, 255, 255));&quot;&gt;-&amp;nbsp;&lt;/span&gt;&lt;u style=&quot;background-color: transparent; color: light-dark(rgb(0, 0, 0), rgb(255, 255, 255));&quot;&gt;ENTIDADE&lt;/u&gt;&lt;span style=&quot;background-color: transparent; color: light-dark(rgb(0, 0, 0), rgb(255, 255, 255));&quot;&gt;: String&lt;/span&gt;&lt;/p&gt;&lt;hr size=&quot;1&quot;&gt;&lt;p style=&quot;margin: 0px 0px 0px 4px; line-height: 1.6;&quot;&gt;+ PacienteView(controller: PacienteController)&lt;/p&gt;&lt;p style=&quot;margin: 0px 0px 0px 4px; line-height: 1.6;&quot;&gt;+ showMenu(): void&lt;br&gt;&lt;/p&gt;&lt;p style=&quot;margin: 0px 0px 0px 4px; line-height: 1.6;&quot;&gt;- adicionar(): void&lt;/p&gt;&lt;p style=&quot;margin: 0px 0px 0px 4px; line-height: 1.6;&quot;&gt;- atualizar(): void&lt;/p&gt;&lt;p style=&quot;margin: 0px 0px 0px 4px; line-height: 1.6;&quot;&gt;- remover(): void&lt;/p&gt;&lt;p style=&quot;margin: 0px 0px 0px 4px; line-height: 1.6;&quot;&gt;- buscar(): void&lt;/p&gt;&lt;p style=&quot;margin: 0px 0px 0px 4px; line-height: 1.6;&quot;&gt;- listar(): void&lt;/p&gt;&lt;p style=&quot;margin: 0px 0px 0px 4px; line-height: 1.6;&quot;&gt;- historicoConsultas(): void&lt;/p&gt;&lt;p style=&quot;margin: 0px 0px 0px 4px; line-height: 1.6;&quot;&gt;- formatarPaciente(paciente: Paciente): String&lt;/p&gt;&lt;p style=&quot;margin: 0px 0px 0px 4px; line-height: 1.6;&quot;&gt;- formatarConsulta(consulta: Consulta)&lt;/p&gt;" style="verticalAlign=top;align=left;overflow=fill;fontSize=14;fontFamily=Helvetica;html=1;rounded=0;shadow=0;comic=0;labelBackgroundColor=none;strokeWidth=1;" parent="30JF-nldkezfp1qGNIKy-13" vertex="1">
          <mxGeometry x="515" y="420" width="395" height="260" as="geometry" />
        </mxCell>
        <mxCell id="edge67" value="" style="html=1;rounded=1;edgeStyle=orthogonalEdgeStyle;dashed=0;startArrow=none;endArrow=block;endSize=12;strokeColor=#000082;exitX=0.000;exitY=0.489;exitDx=0;exitDy=0;" parent="30JF-nldkezfp1qGNIKy-13" source="node19" target="node18" edge="1">
          <mxGeometry width="50" height="50" relative="1" as="geometry">
            <Array as="points">
              <mxPoint x="401" y="533" />
              <mxPoint x="401" y="235" />
            </Array>
          </mxGeometry>
        </mxCell>
        <mxCell id="piTqAlaF3GWimsGXBwTf-16" value="extends" style="edgeLabel;html=1;align=center;verticalAlign=middle;resizable=0;points=[];" parent="edge67" vertex="1" connectable="0">
          <mxGeometry x="-0.8109" y="-2" relative="1" as="geometry">
            <mxPoint x="15" as="offset" />
          </mxGeometry>
        </mxCell>
        <mxCell id="node25" value="&lt;p style=&quot;margin:0px;margin-top:4px;text-align:center;&quot;&gt;&lt;b&gt;MedicoView&lt;/b&gt;&lt;/p&gt;&lt;hr size=&quot;1&quot;&gt;&lt;p style=&quot;margin:0 0 0 4px;line-height:1.6;&quot;&gt;&lt;span style=&quot;color: light-dark(rgb(0, 0, 0), rgb(255, 255, 255)); background-color: transparent;&quot;&gt;-&amp;nbsp;&lt;/span&gt;&lt;u style=&quot;color: light-dark(rgb(0, 0, 0), rgb(255, 255, 255)); background-color: transparent;&quot;&gt;ENTIDADE&lt;/u&gt;&lt;span style=&quot;color: light-dark(rgb(0, 0, 0), rgb(255, 255, 255)); background-color: transparent;&quot;&gt;: String&lt;/span&gt;&lt;/p&gt;&lt;hr size=&quot;1&quot;&gt;&lt;p style=&quot;margin: 0px 0px 0px 4px; line-height: 1.6;&quot;&gt;+ MedicoView(controller: Medico&lt;/p&gt;&lt;p style=&quot;margin: 0px 0px 0px 4px; line-height: 1.6;&quot;&gt;&lt;span style=&quot;background-color: transparent; color: light-dark(rgb(0, 0, 0), rgb(255, 255, 255));&quot;&gt;Controller)&lt;/span&gt;&lt;/p&gt;&lt;p style=&quot;margin: 0px 0px 0px 4px; line-height: 1.6;&quot;&gt;+ showMenu():void&lt;/p&gt;&lt;p style=&quot;margin: 0px 0px 0px 4px; line-height: 1.6;&quot;&gt;- adicionar(): void&lt;/p&gt;&lt;p style=&quot;margin: 0px 0px 0px 4px; line-height: 1.6;&quot;&gt;- atualizar(): void&lt;/p&gt;&lt;p style=&quot;margin: 0px 0px 0px 4px; line-height: 1.6;&quot;&gt;- remover(): void&lt;/p&gt;&lt;p style=&quot;margin: 0px 0px 0px 4px; line-height: 1.6;&quot;&gt;- buscar(): void&lt;/p&gt;&lt;p style=&quot;margin: 0px 0px 0px 4px; line-height: 1.6;&quot;&gt;- listar(): void&lt;/p&gt;&lt;p style=&quot;margin: 0px 0px 0px 4px; line-height: 1.6;&quot;&gt;- formatarMedico(medicamento:&amp;nbsp;&lt;/p&gt;&lt;p style=&quot;margin: 0px 0px 0px 4px; line-height: 1.6;&quot;&gt;Medicamento): String&lt;/p&gt;&lt;p style=&quot;margin: 0px 0px 0px 4px; line-height: 1.6;&quot;&gt;- validarCPF(cpf: String): boolean&lt;/p&gt;" style="verticalAlign=top;align=left;overflow=fill;fontSize=14;fontFamily=Helvetica;html=1;rounded=0;shadow=0;comic=0;labelBackgroundColor=none;strokeWidth=1;" parent="30JF-nldkezfp1qGNIKy-13" vertex="1">
          <mxGeometry x="30" y="701.59" width="247" height="318.41" as="geometry" />
        </mxCell>
        <mxCell id="edge92" value="" style="html=1;rounded=1;edgeStyle=orthogonalEdgeStyle;dashed=0;startArrow=none;endArrow=block;endSize=12;strokeColor=#000082;" parent="30JF-nldkezfp1qGNIKy-13" source="node25" target="node18" edge="1">
          <mxGeometry width="50" height="50" relative="1" as="geometry">
            <Array as="points">
              <mxPoint x="170" y="690" />
              <mxPoint x="400" y="690" />
              <mxPoint x="400" y="235" />
            </Array>
          </mxGeometry>
        </mxCell>
        <mxCell id="piTqAlaF3GWimsGXBwTf-15" value="extends" style="edgeLabel;html=1;align=center;verticalAlign=middle;resizable=0;points=[];" parent="edge92" vertex="1" connectable="0">
          <mxGeometry x="-0.8794" y="-1" relative="1" as="geometry">
            <mxPoint x="11" y="1" as="offset" />
          </mxGeometry>
        </mxCell>
        <mxCell id="node10" value="&lt;p style=&quot;margin:0px;margin-top:4px;text-align:center;&quot;&gt;&lt;b&gt;ExameView&lt;/b&gt;&lt;/p&gt;&lt;hr size=&quot;1&quot;&gt;&lt;p style=&quot;margin:0 0 0 4px;line-height:1.6;&quot;&gt;- &lt;u&gt;ENTIDADE&lt;/u&gt;: String&lt;/p&gt;&lt;hr size=&quot;1&quot;&gt;&lt;p style=&quot;margin:0 0 0 4px;line-height:1.6;&quot;&gt;+ ExameView(ExameController)&lt;/p&gt;&lt;p style=&quot;margin:0 0 0 4px;line-height:1.6;&quot;&gt;+ showMenu(): void&lt;br&gt;&lt;/p&gt;&lt;p style=&quot;margin:0 0 0 4px;line-height:1.6;&quot;&gt;- adicionar(): void&lt;/p&gt;&lt;p style=&quot;margin:0 0 0 4px;line-height:1.6;&quot;&gt;- atualizar(): void&lt;/p&gt;&lt;p style=&quot;margin:0 0 0 4px;line-height:1.6;&quot;&gt;- remover(): void&lt;/p&gt;&lt;p style=&quot;margin:0 0 0 4px;line-height:1.6;&quot;&gt;- buscar(): void&lt;/p&gt;&lt;p style=&quot;margin:0 0 0 4px;line-height:1.6;&quot;&gt;- listar(): void&lt;/p&gt;&lt;p style=&quot;margin:0 0 0 4px;line-height:1.6;&quot;&gt;- formatarExame(): String&lt;/p&gt;" style="verticalAlign=top;align=left;overflow=fill;fontSize=14;fontFamily=Helvetica;html=1;rounded=0;shadow=0;comic=0;labelBackgroundColor=none;strokeWidth=1;" parent="30JF-nldkezfp1qGNIKy-13" vertex="1">
          <mxGeometry x="655" y="725.383469387755" width="245" height="274.61224489795916" as="geometry" />
        </mxCell>
        <mxCell id="edge13" value="" style="html=1;rounded=1;edgeStyle=orthogonalEdgeStyle;dashed=0;startArrow=none;endArrow=block;endSize=12;strokeColor=#000082;" parent="30JF-nldkezfp1qGNIKy-13" source="node10" target="node18" edge="1">
          <mxGeometry width="50" height="50" relative="1" as="geometry">
            <Array as="points">
              <mxPoint x="780" y="700" />
              <mxPoint x="400" y="700" />
              <mxPoint x="400" y="235" />
            </Array>
          </mxGeometry>
        </mxCell>
        <mxCell id="piTqAlaF3GWimsGXBwTf-30" value="extends" style="edgeLabel;html=1;align=center;verticalAlign=middle;resizable=0;points=[];" parent="edge13" vertex="1" connectable="0">
          <mxGeometry x="-0.8516" y="4" relative="1" as="geometry">
            <mxPoint as="offset" />
          </mxGeometry>
        </mxCell>
        <mxCell id="piTqAlaF3GWimsGXBwTf-13" value="&lt;p style=&quot;margin:0px;margin-top:4px;text-align:center;&quot;&gt;&lt;b&gt;ConsultaView&lt;/b&gt;&lt;/p&gt;&lt;hr size=&quot;1&quot; style=&quot;border-style:solid;&quot;&gt;&lt;p style=&quot;margin:0px;margin-left:4px;&quot;&gt;&lt;br&gt;&lt;/p&gt;&lt;hr size=&quot;1&quot; style=&quot;border-style:solid;&quot;&gt;&lt;p style=&quot;margin:0px;margin-left:4px;&quot;&gt;+ ConsultaView(consultaController: ConsultaController, medicoController: MedicoController, pacienteController: PacienteController, prescricaoController: PrescricaoController)&lt;/p&gt;&lt;p style=&quot;margin:0px;margin-left:4px;&quot;&gt;+ showMenu(): void&lt;/p&gt;&lt;p style=&quot;margin:0px;margin-left:4px;&quot;&gt;- agendarConsulta(): void&lt;/p&gt;&lt;p style=&quot;margin:0px;margin-left:4px;&quot;&gt;- atualizarConsulta(): void&lt;/p&gt;&lt;p style=&quot;margin:0px;margin-left:4px;&quot;&gt;- cancelarConsulta(): void&lt;/p&gt;&lt;p style=&quot;margin:0px;margin-left:4px;&quot;&gt;- buscarConsultaPorId(): void&lt;/p&gt;&lt;p style=&quot;margin:0px;margin-left:4px;&quot;&gt;- listarTodasConsultas(): void&lt;/p&gt;&lt;p style=&quot;margin:0px;margin-left:4px;&quot;&gt;- adicionarPrescricaoConsulta(): void&lt;/p&gt;&lt;p style=&quot;margin:0px;margin-left:4px;&quot;&gt;- exibirDetalhesConsulta(consulta: Consulta): void&lt;/p&gt;&lt;p style=&quot;margin:0px;margin-left:4px;&quot;&gt;- exibirDetalhesConsulta(consulta: Consulta, sb StringBuilder): void&lt;/p&gt;" style="verticalAlign=top;align=left;overflow=fill;html=1;whiteSpace=wrap;" parent="30JF-nldkezfp1qGNIKy-13" vertex="1">
          <mxGeometry x="330" y="711.58" width="280" height="288.42" as="geometry" />
        </mxCell>
        <mxCell id="piTqAlaF3GWimsGXBwTf-31" value="" style="html=1;rounded=1;edgeStyle=orthogonalEdgeStyle;dashed=0;startArrow=none;endArrow=block;endSize=12;strokeColor=#000082;" parent="30JF-nldkezfp1qGNIKy-13" source="piTqAlaF3GWimsGXBwTf-13" target="node18" edge="1">
          <mxGeometry width="50" height="50" relative="1" as="geometry">
            <Array as="points">
              <mxPoint x="450" y="700" />
              <mxPoint x="400" y="700" />
              <mxPoint x="400" y="235" />
            </Array>
            <mxPoint x="790" y="735" as="sourcePoint" />
            <mxPoint x="332" y="245" as="targetPoint" />
          </mxGeometry>
        </mxCell>
        <mxCell id="piTqAlaF3GWimsGXBwTf-32" value="extends" style="edgeLabel;html=1;align=center;verticalAlign=middle;resizable=0;points=[];" parent="piTqAlaF3GWimsGXBwTf-31" vertex="1" connectable="0">
          <mxGeometry x="-0.8516" y="4" relative="1" as="geometry">
            <mxPoint x="-6" y="-14" as="offset" />
          </mxGeometry>
        </mxCell>
        <mxCell id="node13" value="&lt;p style=&quot;margin:0px;margin-top:4px;text-align:center;&quot;&gt;&lt;b&gt;MedicamentoView&lt;/b&gt;&lt;/p&gt;&lt;hr size=&quot;1&quot;&gt;&lt;p style=&quot;margin:0 0 0 4px;line-height:1.6;&quot;&gt;&lt;span style=&quot;background-color: transparent; color: light-dark(rgb(0, 0, 0), rgb(255, 255, 255));&quot;&gt;-&amp;nbsp;&lt;/span&gt;&lt;u style=&quot;background-color: transparent; color: light-dark(rgb(0, 0, 0), rgb(255, 255, 255));&quot;&gt;ENTIDADE&lt;/u&gt;&lt;span style=&quot;background-color: transparent; color: light-dark(rgb(0, 0, 0), rgb(255, 255, 255));&quot;&gt;: String&lt;/span&gt;&lt;/p&gt;&lt;hr size=&quot;1&quot;&gt;&lt;p style=&quot;margin:0 0 0 4px;line-height:1.6;&quot;&gt;+ MedicamentoView(controller: Medicamento&lt;/p&gt;&lt;p style=&quot;margin:0 0 0 4px;line-height:1.6;&quot;&gt;Controller)&lt;/p&gt;&lt;p style=&quot;margin:0 0 0 4px;line-height:1.6;&quot;&gt;+ showMenu():void&lt;/p&gt;&lt;p style=&quot;margin:0 0 0 4px;line-height:1.6;&quot;&gt;- adicionar(): void&lt;/p&gt;&lt;p style=&quot;margin:0 0 0 4px;line-height:1.6;&quot;&gt;- atualizar(): void&lt;/p&gt;&lt;p style=&quot;margin:0 0 0 4px;line-height:1.6;&quot;&gt;- remover(): void&lt;/p&gt;&lt;p style=&quot;margin:0 0 0 4px;line-height:1.6;&quot;&gt;- buscar(): void&lt;/p&gt;&lt;p style=&quot;margin:0 0 0 4px;line-height:1.6;&quot;&gt;- listar(): void&lt;/p&gt;&lt;p style=&quot;margin:0 0 0 4px;line-height:1.6;&quot;&gt;- formatarMedicamento(medicamento:&amp;nbsp;&lt;/p&gt;&lt;p style=&quot;margin:0 0 0 4px;line-height:1.6;&quot;&gt;Medicamento): String&lt;/p&gt;" style="verticalAlign=top;align=left;overflow=fill;fontSize=14;fontFamily=Helvetica;html=1;rounded=0;shadow=0;comic=0;labelBackgroundColor=none;strokeWidth=1;" parent="30JF-nldkezfp1qGNIKy-13" vertex="1">
          <mxGeometry x="30" y="376.80999999999995" width="323" height="300" as="geometry" />
        </mxCell>
        <mxCell id="edge64" value="" style="html=1;rounded=1;edgeStyle=orthogonalEdgeStyle;dashed=0;startArrow=none;endArrow=block;endSize=12;strokeColor=#000082;" parent="30JF-nldkezfp1qGNIKy-13" source="node13" target="node18" edge="1">
          <mxGeometry width="50" height="50" relative="1" as="geometry">
            <Array as="points">
              <mxPoint x="401" y="525" />
              <mxPoint x="401" y="235" />
            </Array>
          </mxGeometry>
        </mxCell>
        <mxCell id="piTqAlaF3GWimsGXBwTf-33" value="&lt;div&gt;&lt;span style=&quot;background-color: light-dark(#ffffff, var(--ge-dark-color, #121212)); color: light-dark(rgb(0, 0, 0), rgb(255, 255, 255));&quot;&gt;extends&lt;/span&gt;&lt;/div&gt;" style="edgeLabel;html=1;align=center;verticalAlign=middle;resizable=0;points=[];" parent="edge64" vertex="1" connectable="0">
          <mxGeometry x="-0.9283" relative="1" as="geometry">
            <mxPoint x="12" as="offset" />
          </mxGeometry>
        </mxCell>
        <mxCell id="30JF-nldkezfp1qGNIKy-6" value="&lt;font style=&quot;font-size: 24px;&quot;&gt;Entities&lt;/font&gt;" style="shape=folder;fontStyle=1;tabWidth=270;tabHeight=50;tabPosition=left;html=1;boundedLbl=1;labelInHeader=1;container=0;collapsible=0;whiteSpace=wrap;" parent="1" vertex="1">
          <mxGeometry x="910" y="-220" width="940" height="1580" as="geometry" />
        </mxCell>
        <mxCell id="node9" value="&lt;p style=&quot;margin:0px;margin-top:4px;text-align:center;&quot;&gt;&lt;b&gt;Medico&lt;/b&gt;&lt;/p&gt;&lt;hr size=&quot;1&quot;&gt;&lt;p style=&quot;margin:0 0 0 4px;line-height:1.6;&quot;&gt;&lt;/p&gt;&lt;p style=&quot;margin:0 0 0 4px;line-height:1.6;&quot;&gt;- especialidade: String&lt;br&gt;- crm: String&lt;br&gt;- idMedico: Integer&lt;/p&gt;&lt;hr size=&quot;1&quot;&gt;&lt;p style=&quot;margin:0 0 0 4px;line-height:1.6;&quot;&gt;&lt;/p&gt;&lt;p style=&quot;margin:0 0 0 4px;line-height:1.6;&quot;&gt;+ Medico(String, String, Date, String, String):&lt;/p&gt;&lt;p style=&quot;margin:0 0 0 4px;line-height:1.6;&quot;&gt;+ adicionarConsultaAoHistorico(Consulta): void&lt;/p&gt;&lt;p style=&quot;margin:0 0 0 4px;line-height:1.6;&quot;&gt;+ getIdMedico(): Integer&lt;/p&gt;&lt;p style=&quot;margin:0 0 0 4px;line-height:1.6;&quot;&gt;+ setIdMedico(idMedico: Integer): void&lt;/p&gt;&lt;p style=&quot;margin:0 0 0 4px;line-height:1.6;&quot;&gt;+ getCrm(): String&lt;/p&gt;&lt;p style=&quot;margin:0 0 0 4px;line-height:1.6;&quot;&gt;+ setCrm(crm: String): void&lt;/p&gt;&lt;p style=&quot;margin:0 0 0 4px;line-height:1.6;&quot;&gt;+ getEspecialidade(): String&lt;/p&gt;&lt;p style=&quot;margin:0 0 0 4px;line-height:1.6;&quot;&gt;+ setEspecialidade(especialidade: String)&lt;/p&gt;" style="verticalAlign=top;align=left;overflow=fill;fontSize=14;fontFamily=Helvetica;html=1;rounded=0;shadow=0;comic=0;labelBackgroundColor=none;strokeWidth=1;" parent="1" vertex="1">
          <mxGeometry x="1484" y="751" width="326" height="320" as="geometry" />
        </mxCell>
        <mxCell id="30JF-nldkezfp1qGNIKy-4" value="&lt;font style=&quot;font-size: 24px;&quot;&gt;Controllers&lt;/font&gt;" style="shape=folder;fontStyle=1;tabWidth=170;tabHeight=60;tabPosition=left;html=1;boundedLbl=1;labelInHeader=1;container=0;collapsible=0;whiteSpace=wrap;" parent="1" vertex="1">
          <mxGeometry x="-381" y="-220" width="1130" height="1040" as="geometry" />
        </mxCell>
        <mxCell id="node20" value="&lt;p style=&quot;margin:0px;margin-top:4px;text-align:center;&quot;&gt;&lt;b&gt;PrescricaoController&lt;/b&gt;&lt;/p&gt;&lt;hr size=&quot;1&quot;/&gt;&lt;p style=&quot;margin:0 0 0 4px;line-height:1.6;&quot;&gt;~ PrescricaoController(): &lt;/p&gt;&lt;hr size=&quot;1&quot;/&gt;&lt;p style=&quot;margin:0 0 0 4px;line-height:1.6;&quot;&gt;+ create(ArrayList&amp;lt;Medicamento&amp;gt;, ArrayList&amp;lt;Exame&amp;gt;): Prescricao&lt;br/&gt;+ update(Prescricao): void&lt;br/&gt;+ delete(Prescricao): void&lt;br/&gt;+ listAll(): List&amp;lt;Prescricao&amp;gt;&lt;br/&gt;+ createFromIds(ArrayList&amp;lt;Integer&amp;gt;, ArrayList&amp;lt;Integer&amp;gt;): Prescricao&lt;br/&gt;+ delete(Integer): void&lt;br/&gt;+ read(Integer): Prescricao&lt;/p&gt;" style="verticalAlign=top;align=left;overflow=fill;fontSize=14;fontFamily=Helvetica;html=1;rounded=0;shadow=0;comic=0;labelBackgroundColor=none;strokeWidth=1;" parent="1" vertex="1">
          <mxGeometry x="-330" y="-120" width="455" height="235" as="geometry" />
        </mxCell>
        <mxCell id="30JF-nldkezfp1qGNIKy-5" value="" style="html=1;strokeColor=none;resizeWidth=1;resizeHeight=1;fillColor=none;part=1;connectable=0;allowArrows=0;deletable=0;whiteSpace=wrap;" parent="1" vertex="1">
          <mxGeometry x="100" y="-1540" width="1130" height="868" as="geometry">
            <mxPoint y="30" as="offset" />
          </mxGeometry>
        </mxCell>
        <mxCell id="node2" value="&lt;p style=&quot;margin:0px;margin-top:4px;text-align:center;&quot;&gt;&lt;b&gt;Prescricao&lt;/b&gt;&lt;/p&gt;&lt;hr size=&quot;1&quot;&gt;&lt;p style=&quot;margin:0 0 0 4px;line-height:1.6;&quot;&gt;&lt;/p&gt;&lt;p style=&quot;margin:0 0 0 4px;line-height:1.6;&quot;&gt;- examesPrescritos: ArrayList&amp;lt;Exame&amp;gt;&lt;br&gt;- medicamentosPrescritos: ArrayList&amp;lt;Medicamento&amp;gt;&lt;br&gt;- idPrescricao: Integer&lt;/p&gt;&lt;hr size=&quot;1&quot;&gt;&lt;p style=&quot;margin:0 0 0 4px;line-height:1.6;&quot;&gt;+ Prescricao(ArrayList&amp;lt;Medicamento&amp;gt;, ArrayList&amp;lt;Exame&amp;gt;):&lt;/p&gt;&lt;p style=&quot;margin:0 0 0 4px;line-height:1.6;&quot;&gt;+ getIdPrescricao(): int&lt;/p&gt;&lt;p style=&quot;margin:0 0 0 4px;line-height:1.6;&quot;&gt;+ getMedicamentosPrescritos(): ArrayList&amp;lt;Medicamento&amp;gt;&lt;/p&gt;&lt;p style=&quot;margin:0 0 0 4px;line-height:1.6;&quot;&gt;+ getExamesPrescritos(): ArrayList&amp;lt;Exame&amp;gt;&lt;/p&gt;" style="verticalAlign=top;align=left;overflow=fill;fontSize=14;fontFamily=Helvetica;html=1;rounded=0;shadow=0;comic=0;labelBackgroundColor=none;strokeWidth=1;" parent="1" vertex="1">
          <mxGeometry x="955.5" y="250" width="403" height="230" as="geometry" />
        </mxCell>
        <mxCell id="30JF-nldkezfp1qGNIKy-17" value="&lt;span style=&quot;font-size: 24px;&quot;&gt;Enums&lt;/span&gt;" style="shape=folder;fontStyle=1;tabWidth=270;tabHeight=50;tabPosition=left;html=1;boundedLbl=1;labelInHeader=1;container=1;collapsible=0;whiteSpace=wrap;" parent="1" vertex="1">
          <mxGeometry x="-370" y="2538" width="479" height="262" as="geometry" />
        </mxCell>
        <mxCell id="30JF-nldkezfp1qGNIKy-18" value="" style="html=1;strokeColor=none;resizeWidth=1;resizeHeight=1;fillColor=none;part=1;connectable=0;allowArrows=0;deletable=0;whiteSpace=wrap;" parent="30JF-nldkezfp1qGNIKy-17" vertex="1">
          <mxGeometry width="478.9999999999999" height="183.39999999999998" relative="1" as="geometry">
            <mxPoint y="30" as="offset" />
          </mxGeometry>
        </mxCell>
        <mxCell id="node28" value="&lt;p style=&quot;margin:0px;margin-top:4px;text-align:center;&quot;&gt;&lt;i&gt;&amp;lt;&amp;lt;enumeration&amp;gt;&amp;gt;&lt;/i&gt;&lt;br/&gt;&lt;b&gt;StatusConsulta&lt;/b&gt;&lt;/p&gt;&lt;hr size=&quot;1&quot;/&gt;&lt;p style=&quot;margin:0 0 0 4px;line-height:1.6;&quot;&gt;+ StatusConsulta(): &lt;/p&gt;&lt;hr size=&quot;1&quot;/&gt;&lt;p style=&quot;margin:0 0 0 4px;line-height:1.6;&quot;&gt;+ valueOf(String): StatusConsulta&lt;br/&gt;+ values(): StatusConsulta[]&lt;/p&gt;" style="verticalAlign=top;align=left;overflow=fill;fontSize=14;fontFamily=Helvetica;html=1;rounded=0;shadow=0;comic=0;labelBackgroundColor=none;strokeWidth=1;" parent="30JF-nldkezfp1qGNIKy-17" vertex="1">
          <mxGeometry x="54.5" y="78" width="239" height="140" as="geometry" />
        </mxCell>
        <mxCell id="30JF-nldkezfp1qGNIKy-15" value="&lt;span style=&quot;font-size: 24px;&quot;&gt;Exceptions&lt;/span&gt;" style="shape=folder;fontStyle=1;tabWidth=270;tabHeight=50;tabPosition=left;html=1;boundedLbl=1;labelInHeader=1;container=1;collapsible=0;whiteSpace=wrap;" parent="1" vertex="1">
          <mxGeometry x="170" y="2430" width="920" height="370" as="geometry" />
        </mxCell>
        <mxCell id="30JF-nldkezfp1qGNIKy-16" value="" style="html=1;strokeColor=none;resizeWidth=1;resizeHeight=1;fillColor=none;part=1;connectable=0;allowArrows=0;deletable=0;whiteSpace=wrap;" parent="30JF-nldkezfp1qGNIKy-15" vertex="1">
          <mxGeometry width="919.9999999999999" height="258.99999999999994" relative="1" as="geometry">
            <mxPoint y="30" as="offset" />
          </mxGeometry>
        </mxCell>
        <mxCell id="node1" value="&lt;p style=&quot;margin:0px;margin-top:4px;text-align:center;&quot;&gt;&lt;b&gt;CpfJaCadastradoException&lt;/b&gt;&lt;/p&gt;&lt;hr size=&quot;1&quot;/&gt;&lt;p style=&quot;margin:0 0 0 4px;line-height:1.6;&quot;&gt;+ CpfJaCadastradoException(String): &lt;/p&gt;" style="verticalAlign=top;align=left;overflow=fill;fontSize=14;fontFamily=Helvetica;html=1;rounded=0;shadow=0;comic=0;labelBackgroundColor=none;strokeWidth=1;" parent="30JF-nldkezfp1qGNIKy-15" vertex="1">
          <mxGeometry x="80" y="72.05263157894737" width="267" height="66.21052631578947" as="geometry" />
        </mxCell>
        <mxCell id="node23" value="&lt;p style=&quot;margin:0px;margin-top:4px;text-align:center;&quot;&gt;&lt;b&gt;HorarioIndisponivelException&lt;/b&gt;&lt;/p&gt;&lt;hr size=&quot;1&quot;/&gt;&lt;p style=&quot;margin:0 0 0 4px;line-height:1.6;&quot;&gt;+ HorarioIndisponivelException(String): &lt;/p&gt;" style="verticalAlign=top;align=left;overflow=fill;fontSize=14;fontFamily=Helvetica;html=1;rounded=0;shadow=0;comic=0;labelBackgroundColor=none;strokeWidth=1;" parent="30JF-nldkezfp1qGNIKy-15" vertex="1">
          <mxGeometry x="80" y="167.47368421052627" width="279" height="66.21052631578947" as="geometry" />
        </mxCell>
        <mxCell id="node30" value="&lt;p style=&quot;margin:0px;margin-top:4px;text-align:center;&quot;&gt;&lt;b&gt;PagamentoPendenteException&lt;/b&gt;&lt;/p&gt;&lt;hr size=&quot;1&quot;/&gt;&lt;p style=&quot;margin:0 0 0 4px;line-height:1.6;&quot;&gt;+ PagamentoPendenteException(String): &lt;/p&gt;" style="verticalAlign=top;align=left;overflow=fill;fontSize=14;fontFamily=Helvetica;html=1;rounded=0;shadow=0;comic=0;labelBackgroundColor=none;strokeWidth=1;" parent="30JF-nldkezfp1qGNIKy-15" vertex="1">
          <mxGeometry x="280" y="256.078947368421" width="288" height="66.21052631578947" as="geometry" />
        </mxCell>
        <mxCell id="node14" value="&lt;p style=&quot;margin:0px;margin-top:4px;text-align:center;&quot;&gt;&lt;b&gt;PacientePossuiConsultaNoMesmoDIa&lt;/b&gt;&lt;/p&gt;&lt;hr size=&quot;1&quot;/&gt;&lt;p style=&quot;margin:0 0 0 4px;line-height:1.6;&quot;&gt;+ PacientePossuiConsultaNoMesmoDIa(String): &lt;/p&gt;" style="verticalAlign=top;align=left;overflow=fill;fontSize=14;fontFamily=Helvetica;html=1;rounded=0;shadow=0;comic=0;labelBackgroundColor=none;strokeWidth=1;" parent="30JF-nldkezfp1qGNIKy-15" vertex="1">
          <mxGeometry x="510" y="72.05263157894737" width="342" height="66.21052631578947" as="geometry" />
        </mxCell>
        <mxCell id="node7" value="&lt;p style=&quot;margin:0px;margin-top:4px;text-align:center;&quot;&gt;&lt;b&gt;EspecialidadeInvalidaException&lt;/b&gt;&lt;/p&gt;&lt;hr size=&quot;1&quot;/&gt;&lt;p style=&quot;margin:0 0 0 4px;line-height:1.6;&quot;&gt;+ EspecialidadeInvalidaException(String): &lt;/p&gt;" style="verticalAlign=top;align=left;overflow=fill;fontSize=14;fontFamily=Helvetica;html=1;rounded=0;shadow=0;comic=0;labelBackgroundColor=none;strokeWidth=1;" parent="30JF-nldkezfp1qGNIKy-15" vertex="1">
          <mxGeometry x="550" y="167.47368421052627" width="293" height="66.21052631578947" as="geometry" />
        </mxCell>
        <mxCell id="30JF-nldkezfp1qGNIKy-11" value="&lt;span style=&quot;font-size: 24px;&quot;&gt;Repositories&lt;/span&gt;" style="shape=folder;fontStyle=1;tabWidth=270;tabHeight=50;tabPosition=left;html=1;boundedLbl=1;labelInHeader=1;container=1;collapsible=0;whiteSpace=wrap;" parent="1" vertex="1">
          <mxGeometry x="-381" y="1470" width="780" height="840" as="geometry" />
        </mxCell>
        <mxCell id="30JF-nldkezfp1qGNIKy-12" value="" style="html=1;strokeColor=none;resizeWidth=1;resizeHeight=1;fillColor=none;part=1;connectable=0;allowArrows=0;deletable=0;whiteSpace=wrap;" parent="30JF-nldkezfp1qGNIKy-11" vertex="1">
          <mxGeometry width="780" height="588" relative="1" as="geometry">
            <mxPoint y="30" as="offset" />
          </mxGeometry>
        </mxCell>
        <mxCell id="node3" value="&lt;p style=&quot;margin:0px;margin-top:4px;text-align:center;&quot;&gt;&lt;b&gt;MedicoRepository&lt;/b&gt;&lt;/p&gt;&lt;hr size=&quot;1&quot;/&gt;&lt;p style=&quot;margin:0 0 0 4px;line-height:1.6;&quot;&gt;+ MedicoRepository(): &lt;/p&gt;&lt;hr size=&quot;1&quot;/&gt;&lt;p style=&quot;margin:0 0 0 4px;line-height:1.6;&quot;&gt;+ readMedico(String): Medico&lt;br/&gt;+ deleteMedico(Medico): void&lt;br/&gt;+ createMedico(Medico): void&lt;br/&gt;+ readMedico(int): Medico&lt;br/&gt;+ listAllMedicos(): List&amp;lt;Medico&amp;gt;&lt;br/&gt;+ updateMedico(Medico): void&lt;/p&gt;" style="verticalAlign=top;align=left;overflow=fill;fontSize=14;fontFamily=Helvetica;html=1;rounded=0;shadow=0;comic=0;labelBackgroundColor=none;strokeWidth=1;" parent="30JF-nldkezfp1qGNIKy-11" vertex="1">
          <mxGeometry x="490" y="580" width="232" height="208" as="geometry" />
        </mxCell>
        <mxCell id="node8" value="&lt;p style=&quot;margin:0px;margin-top:4px;text-align:center;&quot;&gt;&lt;b&gt;PacienteRepository&lt;/b&gt;&lt;/p&gt;&lt;hr size=&quot;1&quot;/&gt;&lt;p style=&quot;margin:0 0 0 4px;line-height:1.6;&quot;&gt;+ PacienteRepository(): &lt;/p&gt;&lt;hr size=&quot;1&quot;/&gt;&lt;p style=&quot;margin:0 0 0 4px;line-height:1.6;&quot;&gt;+ updatePaciente(Paciente): void&lt;br/&gt;+ listAllPacientes(): List&amp;lt;Paciente&amp;gt;&lt;br/&gt;+ readPaciente(String): Paciente&lt;br/&gt;+ deletePaciente(Paciente): void&lt;br/&gt;+ createPaciente(Paciente): void&lt;br/&gt;+ readPaciente(int): Paciente&lt;/p&gt;" style="verticalAlign=top;align=left;overflow=fill;fontSize=14;fontFamily=Helvetica;html=1;rounded=0;shadow=0;comic=0;labelBackgroundColor=none;strokeWidth=1;" parent="30JF-nldkezfp1qGNIKy-11" vertex="1">
          <mxGeometry x="51" y="580" width="246" height="208" as="geometry" />
        </mxCell>
        <mxCell id="node4" value="&lt;p style=&quot;margin:0px;margin-top:4px;text-align:center;&quot;&gt;&lt;b&gt;PrescricaoRepository&lt;/b&gt;&lt;/p&gt;&lt;hr size=&quot;1&quot;/&gt;&lt;p style=&quot;margin:0 0 0 4px;line-height:1.6;&quot;&gt;+ PrescricaoRepository(): &lt;/p&gt;&lt;hr size=&quot;1&quot;/&gt;&lt;p style=&quot;margin:0 0 0 4px;line-height:1.6;&quot;&gt;+ listAllPrescricoes(): List&amp;lt;Prescricao&amp;gt;&lt;br/&gt;+ deletePrescricao(Prescricao): void&lt;br/&gt;+ updatePrescricao(Prescricao): void&lt;br/&gt;+ readPrescricao(int): Prescricao&lt;br/&gt;+ createPrescricao(Prescricao): void&lt;/p&gt;" style="verticalAlign=top;align=left;overflow=fill;fontSize=14;fontFamily=Helvetica;html=1;rounded=0;shadow=0;comic=0;labelBackgroundColor=none;strokeWidth=1;" parent="30JF-nldkezfp1qGNIKy-11" vertex="1">
          <mxGeometry x="38.5" y="350" width="271" height="185" as="geometry" />
        </mxCell>
        <mxCell id="node16" value="&lt;p style=&quot;margin:0px;margin-top:4px;text-align:center;&quot;&gt;&lt;b&gt;ConsultaRepository&lt;/b&gt;&lt;/p&gt;&lt;hr size=&quot;1&quot;/&gt;&lt;p style=&quot;margin:0 0 0 4px;line-height:1.6;&quot;&gt;+ ConsultaRepository(): &lt;/p&gt;&lt;hr size=&quot;1&quot;/&gt;&lt;p style=&quot;margin:0 0 0 4px;line-height:1.6;&quot;&gt;+ createConsulta(Consulta): void&lt;br/&gt;+ readConsulta(int): Consulta&lt;br/&gt;+ deleteConsulta(Consulta): void&lt;br/&gt;+ listAllConsultas(): List&amp;lt;Consulta&amp;gt;&lt;br/&gt;+ updateConsulta(Consulta): void&lt;/p&gt;" style="verticalAlign=top;align=left;overflow=fill;fontSize=14;fontFamily=Helvetica;html=1;rounded=0;shadow=0;comic=0;labelBackgroundColor=none;strokeWidth=1;" parent="30JF-nldkezfp1qGNIKy-11" vertex="1">
          <mxGeometry x="472" y="351" width="250" height="184" as="geometry" />
        </mxCell>
        <mxCell id="node29" value="&lt;p style=&quot;margin:0px;margin-top:4px;text-align:center;&quot;&gt;&lt;b&gt;MedicamentoRepository&lt;/b&gt;&lt;/p&gt;&lt;hr size=&quot;1&quot;/&gt;&lt;p style=&quot;margin:0 0 0 4px;line-height:1.6;&quot;&gt;+ MedicamentoRepository(): &lt;/p&gt;&lt;hr size=&quot;1&quot;/&gt;&lt;p style=&quot;margin:0 0 0 4px;line-height:1.6;&quot;&gt;+ listAllMedicamentos(): List&amp;lt;Medicamento&amp;gt;&lt;br/&gt;+ updateMedicamento(Medicamento): void&lt;br/&gt;+ readMedicamento(int): Medicamento&lt;br/&gt;+ createMedicamento(Medicamento): void&lt;br/&gt;+ deleteMedicamento(Medicamento): void&lt;/p&gt;" style="verticalAlign=top;align=left;overflow=fill;fontSize=14;fontFamily=Helvetica;html=1;rounded=0;shadow=0;comic=0;labelBackgroundColor=none;strokeWidth=1;" parent="30JF-nldkezfp1qGNIKy-11" vertex="1">
          <mxGeometry x="51" y="120" width="308" height="184" as="geometry" />
        </mxCell>
        <mxCell id="node31" value="&lt;p style=&quot;margin:0px;margin-top:4px;text-align:center;&quot;&gt;&lt;b&gt;ExameRepository&lt;/b&gt;&lt;/p&gt;&lt;hr size=&quot;1&quot;/&gt;&lt;p style=&quot;margin:0 0 0 4px;line-height:1.6;&quot;&gt;+ ExameRepository(): &lt;/p&gt;&lt;hr size=&quot;1&quot;/&gt;&lt;p style=&quot;margin:0 0 0 4px;line-height:1.6;&quot;&gt;+ readExame(int): Exame&lt;br/&gt;+ createExame(Exame): void&lt;br/&gt;+ listAllExames(): List&amp;lt;Exame&amp;gt;&lt;br/&gt;+ updateExame(Exame): void&lt;br/&gt;+ deleteExame(Exame): void&lt;/p&gt;" style="verticalAlign=top;align=left;overflow=fill;fontSize=14;fontFamily=Helvetica;html=1;rounded=0;shadow=0;comic=0;labelBackgroundColor=none;strokeWidth=1;" parent="30JF-nldkezfp1qGNIKy-11" vertex="1">
          <mxGeometry x="500" y="120" width="222" height="184" as="geometry" />
        </mxCell>
        <mxCell id="node0" value="&lt;p style=&quot;margin:0px;margin-top:4px;text-align:center;&quot;&gt;&lt;b&gt;Main&lt;/b&gt;&lt;/p&gt;&lt;hr size=&quot;1&quot;&gt;&lt;p style=&quot;margin: 0px 0px 0px 4px; line-height: 1.6;&quot;&gt;~ opcoes: String[]&lt;/p&gt;&lt;p style=&quot;margin: 0px 0px 0px 4px; line-height: 1.6;&quot;&gt;~ escolha: int&lt;/p&gt;&lt;hr size=&quot;1&quot;&gt;&lt;p style=&quot;margin:0 0 0 4px;line-height:1.6;&quot;&gt;+ main(String[]): void&lt;/p&gt;" style="verticalAlign=top;align=left;overflow=fill;fontSize=14;fontFamily=Helvetica;html=1;rounded=0;shadow=0;comic=0;labelBackgroundColor=none;strokeWidth=1;" parent="30JF-nldkezfp1qGNIKy-11" vertex="1">
          <mxGeometry x="411" y="-410" width="350" height="140" as="geometry" />
        </mxCell>
        <mxCell id="node24" value="&lt;p style=&quot;margin:0px;margin-top:4px;text-align:center;&quot;&gt;&lt;b&gt;Exame&lt;/b&gt;&lt;/p&gt;&lt;hr size=&quot;1&quot;&gt;&lt;p style=&quot;margin:0 0 0 4px;line-height:1.6;&quot;&gt;&lt;/p&gt;&lt;p style=&quot;margin:0 0 0 4px;line-height:1.6;&quot;&gt;- resultadoDoExame: String&lt;br&gt;- precoDoExame: Double&lt;br&gt;- dataDeRealizacao: Date&lt;br&gt;- idExame: int&lt;br&gt;- dataDePrescricao: Date&lt;br&gt;- tipoDoExame: String&lt;/p&gt;&lt;hr size=&quot;1&quot;&gt;&lt;p style=&quot;margin:0 0 0 4px;line-height:1.6;&quot;&gt;+ Exame(String, Date, Date, String, Double):&lt;/p&gt;&lt;p style=&quot;margin:0 0 0 4px;line-height:1.6;&quot;&gt;+ getIdExame(): int&lt;/p&gt;&lt;p style=&quot;margin:0 0 0 4px;line-height:1.6;&quot;&gt;+ getTipoDoExame(): String&lt;/p&gt;&lt;p style=&quot;margin:0 0 0 4px;line-height:1.6;&quot;&gt;+ setTipoDoExame(tipoDoExame: String): void&lt;/p&gt;&lt;p style=&quot;margin:0 0 0 4px;line-height:1.6;&quot;&gt;+ getDataDePrescricao(): Data&lt;/p&gt;&lt;p style=&quot;margin:0 0 0 4px;line-height:1.6;&quot;&gt;+ setDatDePrescricao(dataDePrescricao: Date):&lt;/p&gt;&lt;p style=&quot;margin:0 0 0 4px;line-height:1.6;&quot;&gt;void&lt;/p&gt;&lt;p style=&quot;margin:0 0 0 4px;line-height:1.6;&quot;&gt;+ getDataDeRealizacao(): Date&lt;/p&gt;&lt;p style=&quot;margin:0 0 0 4px;line-height:1.6;&quot;&gt;+ setDataDeRealizacao(dataDeRealizacao:&lt;/p&gt;&lt;p style=&quot;margin:0 0 0 4px;line-height:1.6;&quot;&gt;Data): void&lt;/p&gt;&lt;p style=&quot;margin:0 0 0 4px;line-height:1.6;&quot;&gt;+ getResultadoDoExamte(): String&lt;/p&gt;&lt;p style=&quot;margin:0 0 0 4px;line-height:1.6;&quot;&gt;+ setResultadoDoExame(resultadoDoExame:&lt;/p&gt;&lt;p style=&quot;margin:0 0 0 4px;line-height:1.6;&quot;&gt;String): void&lt;/p&gt;&lt;p style=&quot;margin:0 0 0 4px;line-height:1.6;&quot;&gt;+ getPrecoDoExame(): Double&lt;/p&gt;&lt;p style=&quot;margin:0 0 0 4px;line-height:1.6;&quot;&gt;+ setPrecoDoExame(precoDoExame: Double):&lt;/p&gt;&lt;p style=&quot;margin:0 0 0 4px;line-height:1.6;&quot;&gt;void&lt;/p&gt;" style="verticalAlign=top;align=left;overflow=fill;fontSize=14;fontFamily=Helvetica;html=1;rounded=0;shadow=0;comic=0;labelBackgroundColor=none;strokeWidth=1;" parent="1" vertex="1">
          <mxGeometry x="955.5" y="-140" width="303" height="363" as="geometry" />
        </mxCell>
        <mxCell id="edge71" value="" style="html=1;rounded=1;edgeStyle=orthogonalEdgeStyle;dashed=0;startArrow=diamondThinstartSize=12;endArrow=openThin;endSize=12;strokeColor=#595959;" parent="1" source="node27" target="node22" edge="1">
          <mxGeometry width="1560" height="770" relative="1" as="geometry">
            <Array as="points">
              <mxPoint x="1560" y="680" />
              <mxPoint x="1340" y="680" />
              <mxPoint x="1340" y="730" />
              <mxPoint x="1110" y="730" />
            </Array>
          </mxGeometry>
        </mxCell>
        <mxCell id="label426" value="1" style="edgeLabel;resizable=0;html=1;align=left;verticalAlign=top;strokeColor=default;" parent="edge71" vertex="1" connectable="0">
          <mxGeometry x="1560" y="640" as="geometry" />
        </mxCell>
        <mxCell id="label431" value="pacienteDaConsulta" style="edgeLabel;resizable=0;html=1;align=left;verticalAlign=top;strokeColor=default;" parent="edge71" vertex="1" connectable="0">
          <mxGeometry x="1460" y="650" as="geometry" />
        </mxCell>
        <mxCell id="edge84" value="" style="html=1;rounded=1;edgeStyle=orthogonalEdgeStyle;dashed=0;startArrow=diamondThinstartSize=12;endArrow=openThin;endSize=12;strokeColor=#595959;" parent="1" source="node27" target="node2" edge="1">
          <mxGeometry width="50" height="50" relative="1" as="geometry">
            <Array as="points">
              <mxPoint x="1750" y="680" />
              <mxPoint x="1340" y="680" />
              <mxPoint x="1340" y="500" />
              <mxPoint x="1157" y="500" />
            </Array>
          </mxGeometry>
        </mxCell>
        <mxCell id="label504" value="1" style="edgeLabel;resizable=0;html=1;align=left;verticalAlign=top;strokeColor=default;" parent="edge84" vertex="1" connectable="0">
          <mxGeometry x="1690" y="640" as="geometry">
            <mxPoint x="69" as="offset" />
          </mxGeometry>
        </mxCell>
        <mxCell id="label509" value="prescricaoDaConsulta" style="edgeLabel;resizable=0;html=1;align=left;verticalAlign=top;strokeColor=default;" parent="edge84" vertex="1" connectable="0">
          <mxGeometry x="1670" y="650" as="geometry" />
        </mxCell>
        <mxCell id="edge25" value="" style="html=1;rounded=1;edgeStyle=orthogonalEdgeStyle;dashed=0;startArrow=diamondThinstartSize=12;endArrow=openThin;endSize=12;strokeColor=#595959;" parent="1" source="node27" target="node28" edge="1">
          <mxGeometry width="50" height="50" relative="1" as="geometry">
            <Array as="points">
              <mxPoint x="1800" y="680" />
              <mxPoint x="1960" y="680" />
              <mxPoint x="1960" y="2830" />
              <mxPoint x="-199" y="2830" />
            </Array>
          </mxGeometry>
        </mxCell>
        <mxCell id="label154" value="1" style="edgeLabel;resizable=0;html=1;align=left;verticalAlign=top;strokeColor=default;" parent="edge25" vertex="1" connectable="0">
          <mxGeometry x="1810" y="630" as="geometry">
            <mxPoint x="7" y="26" as="offset" />
          </mxGeometry>
        </mxCell>
        <mxCell id="label155" value="statusConsultaDaConsulta" style="edgeLabel;resizable=0;html=1;align=left;verticalAlign=top;strokeColor=default;" parent="edge25" vertex="1" connectable="0">
          <mxGeometry x="1820" y="670" as="geometry" />
        </mxCell>
        <mxCell id="edge91" value="" style="html=1;rounded=1;edgeStyle=orthogonalEdgeStyle;dashed=0;startArrow=diamondThinstartSize=12;endArrow=openThin;endSize=12;strokeColor=#595959;" parent="1" source="node16" target="node27" edge="1">
          <mxGeometry width="50" height="50" relative="1" as="geometry">
            <Array as="points">
              <mxPoint x="630" y="1890" />
              <mxPoint x="630" y="1340" />
              <mxPoint x="-420" y="1340" />
              <mxPoint x="-420" y="2830" />
              <mxPoint x="1960" y="2830" />
              <mxPoint x="1960" y="270" />
            </Array>
          </mxGeometry>
        </mxCell>
        <mxCell id="label550" value="*" style="edgeLabel;resizable=0;html=1;align=left;verticalAlign=top;strokeColor=default;" parent="edge91" vertex="1" connectable="0">
          <mxGeometry x="350" y="1870" as="geometry" />
        </mxCell>
        <mxCell id="label551" value="&lt;u&gt;consultas&lt;/u&gt;" style="edgeLabel;resizable=0;html=1;align=left;verticalAlign=top;strokeColor=default;" parent="edge91" vertex="1" connectable="0">
          <mxGeometry x="340" y="1880" as="geometry" />
        </mxCell>
        <mxCell id="edge76" value="" style="html=1;rounded=1;edgeStyle=orthogonalEdgeStyle;dashed=0;startArrow=diamondThinstartSize=12;endArrow=openThin;endSize=12;strokeColor=#595959;" parent="1" source="node12" target="node31" edge="1">
          <mxGeometry width="50" height="50" relative="1" as="geometry">
            <Array as="points">
              <mxPoint x="-420" y="350" />
              <mxPoint x="-420" y="1340" />
              <mxPoint x="190" y="1340" />
            </Array>
          </mxGeometry>
        </mxCell>
        <mxCell id="label460" value="1" style="edgeLabel;resizable=0;html=1;align=left;verticalAlign=top;strokeColor=default;" parent="edge76" vertex="1" connectable="0">
          <mxGeometry x="-350" y="320" as="geometry" />
        </mxCell>
        <mxCell id="label461" value="repository" style="edgeLabel;resizable=0;html=1;align=left;verticalAlign=top;strokeColor=default;" parent="edge76" vertex="1" connectable="0">
          <mxGeometry x="-390" y="340" as="geometry" />
        </mxCell>
        <mxCell id="edge70" value="" style="html=1;rounded=1;edgeStyle=orthogonalEdgeStyle;dashed=0;startArrow=diamondThinstartSize=12;endArrow=openThin;endSize=12;strokeColor=#595959;" parent="1" source="node31" target="node24" edge="1">
          <mxGeometry width="50" height="50" relative="1" as="geometry">
            <Array as="points">
              <mxPoint x="630" y="1682" />
              <mxPoint x="630" y="1180" />
              <mxPoint x="810" y="1180" />
              <mxPoint x="810" y="50" />
            </Array>
          </mxGeometry>
        </mxCell>
        <mxCell id="label424" value="*" style="edgeLabel;resizable=0;html=1;align=left;verticalAlign=top;strokeColor=default;" parent="edge70" vertex="1" connectable="0">
          <mxGeometry x="305" y="1544" as="geometry">
            <mxPoint x="40" y="119" as="offset" />
          </mxGeometry>
        </mxCell>
        <mxCell id="label425" value="&lt;u&gt;exames&lt;/u&gt;" style="edgeLabel;resizable=0;html=1;align=left;verticalAlign=top;strokeColor=default;" parent="edge70" vertex="1" connectable="0">
          <mxGeometry x="340" y="1670" as="geometry" />
        </mxCell>
        <mxCell id="edge89" value="" style="html=1;rounded=1;edgeStyle=orthogonalEdgeStyle;dashed=0;startArrow=diamondThinstartSize=12;endArrow=openThin;endSize=12;strokeColor=#595959;" parent="1" source="node5" target="node29" edge="1">
          <mxGeometry width="50" height="50" relative="1" as="geometry">
            <Array as="points">
              <mxPoint x="68" y="520" />
              <mxPoint x="-420" y="520" />
              <mxPoint x="-420" y="1730" />
            </Array>
          </mxGeometry>
        </mxCell>
        <mxCell id="label534" value="1" style="edgeLabel;resizable=0;html=1;align=left;verticalAlign=top;strokeColor=default;" parent="edge89" vertex="1" connectable="0">
          <mxGeometry x="71" y="287" as="geometry" />
        </mxCell>
        <mxCell id="label538" value="1" style="edgeLabel;resizable=0;html=1;align=left;verticalAlign=top;strokeColor=default;" parent="edge89" vertex="1" connectable="0">
          <mxGeometry x="80" y="490" as="geometry" />
        </mxCell>
        <mxCell id="label539" value="repository" style="edgeLabel;resizable=0;html=1;align=left;verticalAlign=top;strokeColor=default;" parent="edge89" vertex="1" connectable="0">
          <mxGeometry x="20" y="490" as="geometry" />
        </mxCell>
        <mxCell id="edge52" value="" style="html=1;rounded=1;edgeStyle=orthogonalEdgeStyle;dashed=0;startArrow=diamondThinstartSize=12;endArrow=openThin;endSize=12;strokeColor=#595959;" parent="1" source="node29" target="node15" edge="1">
          <mxGeometry width="50" height="50" relative="1" as="geometry">
            <Array as="points">
              <mxPoint x="-420" y="1640" />
              <mxPoint x="-420" y="1340" />
              <mxPoint x="630" y="1340" />
              <mxPoint x="630" y="1180" />
            </Array>
            <mxPoint x="-80" y="1590" as="sourcePoint" />
            <mxPoint x="1128" y="1310" as="targetPoint" />
          </mxGeometry>
        </mxCell>
        <mxCell id="label316" value="*" style="edgeLabel;resizable=0;html=1;align=left;verticalAlign=top;strokeColor=default;" parent="edge52" vertex="1" connectable="0">
          <mxGeometry x="-340" y="1640" as="geometry" />
        </mxCell>
        <mxCell id="label317" value="&lt;u&gt;medicamentos&lt;/u&gt;" style="edgeLabel;resizable=0;html=1;align=left;verticalAlign=top;strokeColor=default;" parent="edge52" vertex="1" connectable="0">
          <mxGeometry x="-410" y="1620" as="geometry" />
        </mxCell>
        <mxCell id="edge27" value="" style="html=1;rounded=1;edgeStyle=orthogonalEdgeStyle;dashed=0;startArrow=none;endArrow=block;endSize=12;strokeColor=#000082;" parent="1" source="node9" target="node21" edge="1">
          <mxGeometry width="50" height="50" relative="1" as="geometry">
            <Array as="points">
              <mxPoint x="1340" y="1020" />
              <mxPoint x="1340" y="911" />
            </Array>
          </mxGeometry>
        </mxCell>
        <mxCell id="3GtSO3E3ttd47XfmLNBS-87" value="extends" style="edgeLabel;html=1;align=center;verticalAlign=middle;resizable=0;points=[];fontFamily=Helvetica;fontSize=11;fontColor=default;labelBackgroundColor=default;" parent="edge27" vertex="1" connectable="0">
          <mxGeometry x="-0.7211" y="2" relative="1" as="geometry">
            <mxPoint as="offset" />
          </mxGeometry>
        </mxCell>
        <mxCell id="edge74" value="" style="html=1;rounded=1;edgeStyle=orthogonalEdgeStyle;dashed=0;startArrow=diamondThinstartSize=12;endArrow=openThin;endSize=12;strokeColor=#595959;" parent="1" source="node11" target="node3" edge="1">
          <mxGeometry width="50" height="50" relative="1" as="geometry">
            <Array as="points">
              <mxPoint x="810" y="380" />
              <mxPoint x="810" y="1180" />
              <mxPoint x="630" y="1180" />
              <mxPoint x="630" y="2190" />
            </Array>
          </mxGeometry>
        </mxCell>
        <mxCell id="label448" value="1" style="edgeLabel;resizable=0;html=1;align=left;verticalAlign=top;strokeColor=default;" parent="edge74" vertex="1" connectable="0">
          <mxGeometry x="730" y="370" as="geometry" />
        </mxCell>
        <mxCell id="label449" value="repository" style="edgeLabel;resizable=0;html=1;align=left;verticalAlign=top;strokeColor=default;" parent="edge74" vertex="1" connectable="0">
          <mxGeometry x="670" y="370" as="geometry" />
        </mxCell>
        <mxCell id="edge63" value="" style="html=1;rounded=1;edgeStyle=orthogonalEdgeStyle;dashed=0;startArrow=diamondThinstartSize=12;endArrow=openThin;endSize=12;strokeColor=#595959;" parent="1" source="node3" target="node9" edge="1">
          <mxGeometry width="50" height="50" relative="1" as="geometry">
            <Array as="points">
              <mxPoint x="630" y="2130" />
              <mxPoint x="630" y="1430" />
              <mxPoint x="1340" y="1430" />
              <mxPoint x="1340" y="910" />
            </Array>
          </mxGeometry>
        </mxCell>
        <mxCell id="label383" value="&lt;u&gt;medicos&lt;/u&gt;" style="edgeLabel;resizable=0;html=1;align=left;verticalAlign=top;strokeColor=default;" parent="edge63" vertex="1" connectable="0">
          <mxGeometry x="350" y="2110" as="geometry" />
        </mxCell>
        <mxCell id="3GtSO3E3ttd47XfmLNBS-64" value="*" style="edgeLabel;html=1;align=center;verticalAlign=middle;resizable=0;points=[];fontFamily=Helvetica;fontSize=11;fontColor=default;labelBackgroundColor=default;" parent="edge63" vertex="1" connectable="0">
          <mxGeometry x="-0.9263" y="-4" relative="1" as="geometry">
            <mxPoint x="-78" y="6" as="offset" />
          </mxGeometry>
        </mxCell>
        <mxCell id="edge85" value="" style="html=1;rounded=1;edgeStyle=orthogonalEdgeStyle;dashed=0;startArrow=diamondThinstartSize=12;endArrow=openThin;endSize=12;strokeColor=#595959;exitX=0.000;exitY=0.356;exitDx=0;exitDy=0;" parent="1" source="30JF-nldkezfp1qGNIKy-13" target="node11" edge="1">
          <mxGeometry width="50" height="50" relative="1" as="geometry">
            <Array as="points" />
          </mxGeometry>
        </mxCell>
        <mxCell id="label510" value="1" style="edgeLabel;resizable=0;html=1;align=left;verticalAlign=top;strokeColor=default;" parent="edge85" vertex="1" connectable="0">
          <mxGeometry x="991" y="1997" as="geometry" />
        </mxCell>
        <mxCell id="label514" value="1" style="edgeLabel;resizable=0;html=1;align=left;verticalAlign=top;strokeColor=default;" parent="edge85" vertex="1" connectable="0">
          <mxGeometry x="991" y="1997" as="geometry" />
        </mxCell>
        <mxCell id="edge15" value="" style="html=1;rounded=1;edgeStyle=orthogonalEdgeStyle;dashed=0;startArrow=diamondThinstartSize=12;endArrow=openThin;endSize=12;strokeColor=#595959;" parent="1" source="node17" target="node8" edge="1">
          <mxGeometry width="50" height="50" relative="1" as="geometry">
            <Array as="points">
              <mxPoint x="-420" y="690" />
              <mxPoint x="-420" y="2200" />
            </Array>
          </mxGeometry>
        </mxCell>
        <mxCell id="label94" value="1" style="edgeLabel;resizable=0;html=1;align=left;verticalAlign=top;strokeColor=default;" parent="edge15" vertex="1" connectable="0">
          <mxGeometry x="34" y="680" as="geometry" />
        </mxCell>
        <mxCell id="label95" value="repository" style="edgeLabel;resizable=0;html=1;align=left;verticalAlign=top;strokeColor=default;" parent="edge15" vertex="1" connectable="0">
          <mxGeometry x="-20" y="680" as="geometry" />
        </mxCell>
        <mxCell id="edge72" value="" style="html=1;rounded=1;edgeStyle=orthogonalEdgeStyle;dashed=0;startArrow=diamondThinstartSize=12;endArrow=openThin;endSize=12;strokeColor=#595959;" parent="1" source="node8" target="node22" edge="1">
          <mxGeometry width="50" height="50" relative="1" as="geometry">
            <Array as="points">
              <mxPoint x="-420" y="2130" />
              <mxPoint x="-420" y="2830" />
              <mxPoint x="1960" y="2830" />
              <mxPoint x="1960" y="1430" />
              <mxPoint x="1340" y="1430" />
              <mxPoint x="1340" y="730" />
              <mxPoint x="1110" y="730" />
            </Array>
          </mxGeometry>
        </mxCell>
        <mxCell id="label436" value="*" style="edgeLabel;resizable=0;html=1;align=left;verticalAlign=top;strokeColor=default;" parent="edge72" vertex="1" connectable="0">
          <mxGeometry x="-340" y="2060" as="geometry">
            <mxPoint x="-4" y="53" as="offset" />
          </mxGeometry>
        </mxCell>
        <mxCell id="label437" value="&lt;u&gt;pacientes&lt;/u&gt;" style="edgeLabel;resizable=0;html=1;align=left;verticalAlign=top;strokeColor=default;" parent="edge72" vertex="1" connectable="0">
          <mxGeometry x="-390" y="2120" as="geometry" />
        </mxCell>
        <mxCell id="edge73" value="" style="html=1;rounded=1;edgeStyle=orthogonalEdgeStyle;dashed=0;startArrow=diamondThinstartSize=12;endArrow=openThin;endSize=12;strokeColor=#595959;exitX=1.000;exitY=0.629;exitDx=0;exitDy=0;entryX=0.632;entryY=0.000;entryDx=0;entryDy=0;" parent="1" source="node19" target="node6" edge="1">
          <mxGeometry width="50" height="50" relative="1" as="geometry">
            <Array as="points">
              <mxPoint x="1960" y="2034" />
              <mxPoint x="1960" y="-250" />
              <mxPoint x="501" y="-250" />
            </Array>
          </mxGeometry>
        </mxCell>
        <mxCell id="piTqAlaF3GWimsGXBwTf-47" value="consultaController" style="edgeLabel;html=1;align=center;verticalAlign=middle;resizable=0;points=[];" parent="edge73" vertex="1" connectable="0">
          <mxGeometry x="-0.9803" y="-2" relative="1" as="geometry">
            <mxPoint x="10" as="offset" />
          </mxGeometry>
        </mxCell>
        <mxCell id="piTqAlaF3GWimsGXBwTf-48" value="1" style="edgeLabel;html=1;align=center;verticalAlign=middle;resizable=0;points=[];" parent="edge73" vertex="1" connectable="0">
          <mxGeometry x="-0.9456" y="-4" relative="1" as="geometry">
            <mxPoint as="offset" />
          </mxGeometry>
        </mxCell>
        <mxCell id="edge10" value="" style="html=1;rounded=1;edgeStyle=orthogonalEdgeStyle;dashed=0;startArrow=diamondThinstartSize=12;endArrow=openThin;endSize=12;strokeColor=#595959;" parent="1" source="node20" target="node4" edge="1">
          <mxGeometry width="50" height="50" relative="1" as="geometry">
            <Array as="points">
              <mxPoint x="-420" />
              <mxPoint x="-420" y="1960" />
            </Array>
          </mxGeometry>
        </mxCell>
        <mxCell id="label60" value="1" style="edgeLabel;resizable=0;html=1;align=left;verticalAlign=top;strokeColor=default;" parent="edge10" vertex="1" connectable="0">
          <mxGeometry x="-334" y="82" as="geometry" />
        </mxCell>
        <mxCell id="label64" value="1" style="edgeLabel;resizable=0;html=1;align=left;verticalAlign=top;strokeColor=default;" parent="edge10" vertex="1" connectable="0">
          <mxGeometry x="-350" y="-20" as="geometry" />
        </mxCell>
        <mxCell id="label65" value="repository" style="edgeLabel;resizable=0;html=1;align=left;verticalAlign=top;strokeColor=default;" parent="edge10" vertex="1" connectable="0">
          <mxGeometry x="-390" y="-10" as="geometry" />
        </mxCell>
        <mxCell id="edge18" value="" style="html=1;rounded=1;edgeStyle=orthogonalEdgeStyle;dashed=0;startArrow=diamondThinstartSize=12;endArrow=openThin;endSize=12;strokeColor=#595959;" parent="1" source="node26" target="node12" edge="1">
          <mxGeometry width="50" height="50" relative="1" as="geometry">
            <Array as="points">
              <mxPoint x="1960" y="1610" />
              <mxPoint x="1960" y="2830" />
              <mxPoint x="-420" y="2830" />
              <mxPoint x="-420" y="384" />
            </Array>
            <mxPoint x="-50" y="530" as="targetPoint" />
            <mxPoint x="1390" y="1939" as="sourcePoint" />
          </mxGeometry>
        </mxCell>
        <mxCell id="label112" value="1" style="edgeLabel;resizable=0;html=1;align=left;verticalAlign=top;strokeColor=default;" parent="edge18" vertex="1" connectable="0">
          <mxGeometry x="1800" y="1880" as="geometry">
            <mxPoint x="104" y="-281" as="offset" />
          </mxGeometry>
        </mxCell>
        <mxCell id="label113" value="exameController" style="edgeLabel;resizable=0;html=1;align=left;verticalAlign=top;strokeColor=default;" parent="edge18" vertex="1" connectable="0">
          <mxGeometry x="1820" y="1600" as="geometry" />
        </mxCell>
        <mxCell id="edge34" value="" style="html=1;rounded=1;edgeStyle=orthogonalEdgeStyle;dashed=0;startArrow=diamondThinstartSize=12;endArrow=openThin;endSize=12;strokeColor=#595959;" parent="1" source="node26" target="node5" edge="1">
          <mxGeometry width="50" height="50" relative="1" as="geometry">
            <Array as="points">
              <mxPoint x="1960" y="1770" />
              <mxPoint x="1960" y="2830" />
              <mxPoint x="-420" y="2830" />
              <mxPoint x="-420" y="-250" />
              <mxPoint x="170" y="-250" />
            </Array>
            <mxPoint x="170" y="310" as="targetPoint" />
          </mxGeometry>
        </mxCell>
        <mxCell id="label208" value="1" style="edgeLabel;resizable=0;html=1;align=left;verticalAlign=top;strokeColor=default;" parent="edge34" vertex="1" connectable="0">
          <mxGeometry x="1810" y="1916" as="geometry" />
        </mxCell>
        <mxCell id="node15" value="&lt;p style=&quot;margin:0px;margin-top:4px;text-align:center;&quot;&gt;&lt;b&gt;Medicamento&lt;/b&gt;&lt;/p&gt;&lt;hr size=&quot;1&quot;&gt;&lt;p style=&quot;margin:0 0 0 4px;line-height:1.6;&quot;&gt;- nome: String&lt;br&gt;- idMedicamento: int&lt;/p&gt;&lt;hr size=&quot;1&quot;&gt;&lt;p style=&quot;margin:0 0 0 4px;line-height:1.6;&quot;&gt;+ Medicamento(String)&lt;/p&gt;&lt;p style=&quot;margin:0 0 0 4px;line-height:1.6;&quot;&gt;+ getIdMedicamento(): int&lt;/p&gt;&lt;p style=&quot;margin:0 0 0 4px;line-height:1.6;&quot;&gt;+ setIdMedicamento(idMedicamento:&amp;nbsp;&lt;/p&gt;&lt;p style=&quot;margin:0 0 0 4px;line-height:1.6;&quot;&gt;int): void&lt;/p&gt;&lt;p style=&quot;margin:0 0 0 4px;line-height:1.6;&quot;&gt;+ getNome(): String&lt;/p&gt;&lt;p style=&quot;margin:0 0 0 4px;line-height:1.6;&quot;&gt;+ setNome(nome: String): void&lt;/p&gt;&lt;p style=&quot;margin:0 0 0 4px;line-height:1.6;&quot;&gt;&lt;br&gt;&lt;/p&gt;" style="verticalAlign=top;align=left;overflow=fill;fontSize=14;fontFamily=Helvetica;html=1;rounded=0;shadow=0;comic=0;labelBackgroundColor=none;strokeWidth=1;" parent="1" vertex="1">
          <mxGeometry x="1027.5" y="1080" width="182" height="230" as="geometry" />
        </mxCell>
        <mxCell id="edge75" value="" style="html=1;rounded=1;edgeStyle=orthogonalEdgeStyle;dashed=0;startArrow=diamondThinstartSize=12;endArrow=openThin;endSize=12;strokeColor=#595959;" parent="1" source="node27" target="node9" edge="1">
          <mxGeometry width="50" height="50" relative="1" as="geometry">
            <Array as="points">
              <mxPoint x="1660" y="680" />
              <mxPoint x="1340" y="680" />
              <mxPoint x="1340" y="910" />
            </Array>
          </mxGeometry>
        </mxCell>
        <mxCell id="3GtSO3E3ttd47XfmLNBS-18" value="&lt;div&gt;&lt;span style=&quot;background-color: light-dark(#ffffff, var(--ge-dark-color, #121212)); color: light-dark(rgb(0, 0, 0), rgb(255, 255, 255));&quot;&gt;medicoDaConsulta&lt;/span&gt;&lt;/div&gt;" style="edgeLabel;html=1;align=center;verticalAlign=middle;resizable=0;points=[];fontFamily=Helvetica;fontSize=11;fontColor=default;labelBackgroundColor=default;rotation=0;" parent="edge75" vertex="1" connectable="0">
          <mxGeometry x="-0.9181" y="2" relative="1" as="geometry">
            <mxPoint x="-42" y="-3" as="offset" />
          </mxGeometry>
        </mxCell>
        <mxCell id="3GtSO3E3ttd47XfmLNBS-19" value="1" style="edgeLabel;html=1;align=center;verticalAlign=middle;resizable=0;points=[];fontFamily=Helvetica;fontSize=11;fontColor=default;labelBackgroundColor=default;" parent="edge75" vertex="1" connectable="0">
          <mxGeometry x="-0.9666" y="2" relative="1" as="geometry">
            <mxPoint x="-12" y="-1" as="offset" />
          </mxGeometry>
        </mxCell>
        <mxCell id="3GtSO3E3ttd47XfmLNBS-23" value="" style="html=1;rounded=1;edgeStyle=orthogonalEdgeStyle;dashed=0;startArrow=diamondThinstartSize=12;endArrow=openThin;endSize=12;strokeColor=#595959;" parent="1" source="node26" target="node20" edge="1">
          <mxGeometry width="50" height="50" relative="1" as="geometry">
            <Array as="points">
              <mxPoint x="1960" y="1690" />
              <mxPoint x="1960" y="-250" />
              <mxPoint x="-110" y="-250" />
            </Array>
            <mxPoint x="1801" y="1854" as="sourcePoint" />
            <mxPoint x="-80" y="-25" as="targetPoint" />
          </mxGeometry>
        </mxCell>
        <mxCell id="3GtSO3E3ttd47XfmLNBS-25" value="1" style="edgeLabel;resizable=0;html=1;align=left;verticalAlign=top;strokeColor=default;" parent="3GtSO3E3ttd47XfmLNBS-23" vertex="1" connectable="0">
          <mxGeometry x="1930" y="1680" as="geometry" />
        </mxCell>
        <mxCell id="3GtSO3E3ttd47XfmLNBS-26" value="prescricaoController" style="edgeLabel;resizable=0;html=1;align=left;verticalAlign=top;strokeColor=default;" parent="3GtSO3E3ttd47XfmLNBS-23" vertex="1" connectable="0">
          <mxGeometry x="1820" y="1680" as="geometry" />
        </mxCell>
        <mxCell id="node21" value="&lt;p style=&quot;margin:0px;margin-top:4px;text-align:center;&quot;&gt;&lt;b&gt;PessoaFisica&lt;/b&gt;&lt;/p&gt;&lt;hr size=&quot;1&quot;&gt;&lt;p style=&quot;margin:0 0 0 4px;line-height:1.6;&quot;&gt;&lt;/p&gt;&lt;p style=&quot;margin:0 0 0 4px;line-height:1.6;&quot;&gt;- nome: String&lt;br&gt;- cpf: String&lt;br&gt;- dataDeNascimento: Date&lt;br&gt;- historico: ArrayList&amp;lt;Object&amp;gt;&lt;/p&gt;&lt;hr size=&quot;1&quot;&gt;&lt;p style=&quot;margin:0 0 0 4px;line-height:1.6;&quot;&gt;&lt;/p&gt;&lt;p style=&quot;margin:0 0 0 4px;line-height:1.6;&quot;&gt;+ PessoaFisica(String, String, Date):&lt;/p&gt;&lt;div&gt;&amp;nbsp;+ setNome(nome: String): void&lt;/div&gt;&lt;div&gt;&amp;nbsp;+ getCpf(): String&lt;/div&gt;&lt;div&gt;&amp;nbsp;+ setCpf(cpt: String): void&lt;/div&gt;&lt;div&gt;&amp;nbsp;+ getDataDeNascimento(): Date&amp;nbsp;&amp;nbsp;&lt;/div&gt;&lt;div&gt;&amp;nbsp;+ setDataDeNascimento(dataDeNascimento: Date)&lt;/div&gt;&lt;div&gt;&amp;nbsp;+ getHistorico(): ArrayList&amp;lt;Object&amp;gt;&lt;/div&gt;&lt;div&gt;&amp;nbsp;+ adicionarConsultaAoHistorico(Consulta): void&lt;/div&gt;" style="verticalAlign=top;align=left;overflow=fill;fontSize=14;fontFamily=Helvetica;html=1;rounded=0;shadow=0;comic=0;labelBackgroundColor=none;strokeWidth=1;" parent="1" vertex="1">
          <mxGeometry x="955.5" y="770" width="326" height="282" as="geometry" />
        </mxCell>
        <mxCell id="node27" value="&lt;p style=&quot;margin:0px;margin-top:4px;text-align:center;&quot;&gt;&lt;b&gt;Consulta&lt;/b&gt;&lt;/p&gt;&lt;hr size=&quot;1&quot;&gt;&lt;p style=&quot;margin:0 0 0 4px;line-height:1.6;&quot;&gt;&lt;/p&gt;&lt;p style=&quot;margin:0 0 0 4px;line-height:1.6;&quot;&gt;&lt;span style=&quot;background-color: transparent; color: light-dark(rgb(0, 0, 0), rgb(255, 255, 255));&quot;&gt;- horarioDeInicio: LocalDateTime&lt;/span&gt;&lt;/p&gt;&lt;p style=&quot;margin:0 0 0 4px;line-height:1.6;&quot;&gt;- idConsulta: int&lt;br&gt;- statusConsultaDaConsulta: StatusConsulta&lt;br&gt;- pacienteDaConsulta: Paciente&lt;br&gt;- dataDaConsulta: Date&lt;br&gt;- medicoDaConsulta: Medico&lt;br&gt;- valorConsulta: Double&lt;br&gt;- tipoConsulta: String&lt;br&gt;- prescricaoDaConsulta: Prescricao&lt;br&gt;- duracaoDaConsulta: LocalDateTime&lt;/p&gt;&lt;hr size=&quot;1&quot;&gt;&lt;p style=&quot;margin: 0px 0px 0px 4px; line-height: 1.6;&quot;&gt;+ Consulta(String, Date, LocalDateTime, LocalDateTime,&lt;/p&gt;&lt;p style=&quot;margin: 0px 0px 0px 4px; line-height: 1.6;&quot;&gt;Paciente, Medico, Double, Prescricao, StatusConsulta)&lt;/p&gt;&lt;p style=&quot;margin:0 0 0 4px;line-height:1.6;&quot;&gt;+ getIdConsulta(): int&lt;br&gt;+ getTipoConsulta(): String&lt;br&gt;+ setTipoConsulta(tipoConsulta: String): void&lt;br&gt;+ getDataConsulta(): Date&lt;br&gt;+ setDataConsulta(dataDaConsulta: Date): void&lt;br&gt;+ getHorarioDeInicio(): LocalDateTime&lt;br&gt;+ setHorarioDeInicio(horarioDeInicio: LocalDateTime): void&lt;br&gt;+ getDuracaoConsulta():&amp;nbsp;&lt;span style=&quot;background-color: transparent; color: light-dark(rgb(0, 0, 0), rgb(255, 255, 255));&quot;&gt;LocalDateTime&lt;/span&gt;&lt;/p&gt;&lt;p style=&quot;margin:0 0 0 4px;line-height:1.6;&quot;&gt;+ setDuracaoConsulta(duracaoDaConsulta: LocalDateTime): void&lt;/p&gt;&lt;p style=&quot;margin:0 0 0 4px;line-height:1.6;&quot;&gt;+ getPacienteConsulta(): Paciente&lt;/p&gt;&lt;p style=&quot;margin:0 0 0 4px;line-height:1.6;&quot;&gt;+ setPacienteConsulta(pacienteDaConsulta: Paciente): void&lt;/p&gt;&lt;p style=&quot;margin:0 0 0 4px;line-height:1.6;&quot;&gt;+ getMedicoDaConsulta(): Medico&lt;/p&gt;&lt;p style=&quot;margin:0 0 0 4px;line-height:1.6;&quot;&gt;+ setMedicoDaConsulta(medicoDaConsulta: Medico): void&lt;/p&gt;&lt;p style=&quot;margin:0 0 0 4px;line-height:1.6;&quot;&gt;+ getValorConsulta(): Double&lt;/p&gt;&lt;p style=&quot;margin:0 0 0 4px;line-height:1.6;&quot;&gt;+ setValorConsulta(valorConsulta: Double): void&lt;/p&gt;&lt;p style=&quot;margin:0 0 0 4px;line-height:1.6;&quot;&gt;+ getPrescricaoDaConsulta(): Prescricao&lt;/p&gt;&lt;p style=&quot;margin:0 0 0 4px;line-height:1.6;&quot;&gt;+ setPrescricaoDaConsulta(prescricaoDaConsulta: Prescricao):&amp;nbsp;&lt;/p&gt;&lt;p style=&quot;margin:0 0 0 4px;line-height:1.6;&quot;&gt;void&amp;nbsp;&lt;/p&gt;&lt;p style=&quot;margin:0 0 0 4px;line-height:1.6;&quot;&gt;+ getStatusConsultaDaConsulta(): StatusConsulta&lt;/p&gt;&lt;p style=&quot;margin:0 0 0 4px;line-height:1.6;&quot;&gt;+ setStatusConsultaDaConsulta(statusConsultaDaConsulta:&amp;nbsp;&lt;/p&gt;&lt;p style=&quot;margin:0 0 0 4px;line-height:1.6;&quot;&gt;Status Consulta): void&lt;/p&gt;" style="verticalAlign=top;align=left;overflow=fill;fontSize=14;fontFamily=Helvetica;html=1;rounded=0;shadow=0;comic=0;labelBackgroundColor=none;strokeWidth=1;" parent="1" vertex="1">
          <mxGeometry x="1390" y="-150" width="420" height="790" as="geometry" />
        </mxCell>
        <mxCell id="3GtSO3E3ttd47XfmLNBS-40" value="" style="html=1;rounded=1;edgeStyle=orthogonalEdgeStyle;dashed=0;startArrow=diamondThinstartSize=12;endArrow=openThin;endSize=12;strokeColor=#595959;" parent="1" source="node4" target="node2" edge="1">
          <mxGeometry width="50" height="50" relative="1" as="geometry">
            <Array as="points">
              <mxPoint x="-420" y="1880" />
              <mxPoint x="-420" y="2830" />
              <mxPoint x="1960" y="2830" />
              <mxPoint x="1960" y="1430" />
              <mxPoint x="1340" y="1430" />
              <mxPoint x="1340" y="500" />
              <mxPoint x="1157" y="500" />
            </Array>
            <mxPoint x="-360" y="1880" as="sourcePoint" />
            <mxPoint x="1342" y="390" as="targetPoint" />
          </mxGeometry>
        </mxCell>
        <mxCell id="3GtSO3E3ttd47XfmLNBS-42" value="*" style="edgeLabel;resizable=0;html=1;align=left;verticalAlign=top;strokeColor=default;" parent="3GtSO3E3ttd47XfmLNBS-40" vertex="1" connectable="0">
          <mxGeometry x="-350" y="1860" as="geometry" />
        </mxCell>
        <mxCell id="3GtSO3E3ttd47XfmLNBS-43" value="&lt;u&gt;prescricoes&lt;/u&gt;" style="edgeLabel;resizable=0;html=1;align=left;verticalAlign=top;strokeColor=default;" parent="3GtSO3E3ttd47XfmLNBS-40" vertex="1" connectable="0">
          <mxGeometry x="-400" y="1870" as="geometry" />
        </mxCell>
        <mxCell id="node22" value="&lt;p style=&quot;margin:0px;margin-top:4px;text-align:center;&quot;&gt;&lt;b&gt;Paciente&lt;/b&gt;&lt;/p&gt;&lt;hr size=&quot;1&quot;&gt;&lt;p style=&quot;margin:0 0 0 4px;line-height:1.6;&quot;&gt;&lt;/p&gt;&lt;p style=&quot;margin:0 0 0 4px;line-height:1.6;&quot;&gt;- idPaciente: Integer&lt;/p&gt;&lt;hr size=&quot;1&quot;&gt;&lt;p style=&quot;margin:0 0 0 4px;line-height:1.6;&quot;&gt;&lt;/p&gt;&lt;p style=&quot;margin:0 0 0 4px;line-height:1.6;&quot;&gt;+ Paciente(String, String, Date)&lt;/p&gt;&lt;p style=&quot;margin:0 0 0 4px;line-height:1.6;&quot;&gt;+ getIdPaciente(): Integer&lt;/p&gt;&lt;p style=&quot;margin:0 0 0 4px;line-height:1.6;&quot;&gt;+ setIdPaciente(idPaciente: Integer)&lt;/p&gt;&lt;div&gt;&lt;span style=&quot;background-color: transparent; color: light-dark(rgb(0, 0, 0), rgb(255, 255, 255));&quot;&gt;&amp;nbsp;+ adicionarConsultaAoHistorico(Consulta): void&lt;/span&gt;&lt;/div&gt;&lt;div&gt;&lt;span style=&quot;background-color: transparent; color: light-dark(rgb(0, 0, 0), rgb(255, 255, 255));&quot;&gt;&lt;br&gt;&lt;/span&gt;&lt;/div&gt;" style="verticalAlign=top;align=left;overflow=fill;fontSize=14;fontFamily=Helvetica;html=1;rounded=0;shadow=0;comic=0;labelBackgroundColor=none;strokeWidth=1;" parent="1" vertex="1">
          <mxGeometry x="955.5" y="517" width="326" height="175" as="geometry" />
        </mxCell>
        <mxCell id="node5" value="&lt;p style=&quot;margin:0px;margin-top:4px;text-align:center;&quot;&gt;&lt;b&gt;MedicamentoController&lt;/b&gt;&lt;/p&gt;&lt;hr size=&quot;1&quot;/&gt;&lt;p style=&quot;margin:0 0 0 4px;line-height:1.6;&quot;&gt;~ MedicamentoController(): &lt;/p&gt;&lt;hr size=&quot;1&quot;/&gt;&lt;p style=&quot;margin:0 0 0 4px;line-height:1.6;&quot;&gt;+ read(Integer): Medicamento&lt;br/&gt;+ delete(Integer): void&lt;br/&gt;+ create(String): void&lt;br/&gt;+ update(Medicamento): void&lt;br/&gt;+ listAll(): List&amp;lt;Medicamento&amp;gt;&lt;br/&gt;+ delete(Medicamento): void&lt;/p&gt;" style="verticalAlign=top;align=left;overflow=fill;fontSize=14;fontFamily=Helvetica;html=1;rounded=0;shadow=0;comic=0;labelBackgroundColor=none;strokeWidth=1;" parent="1" vertex="1">
          <mxGeometry x="50" y="280" width="232" height="208" as="geometry" />
        </mxCell>
        <mxCell id="edge2" value="" style="html=1;rounded=1;edgeStyle=orthogonalEdgeStyle;dashed=0;startArrow=diamondThinstartSize=12;endArrow=openThin;endSize=12;strokeColor=#595959;" parent="1" source="node20" target="node5" edge="1">
          <mxGeometry width="50" height="50" relative="1" as="geometry">
            <Array as="points">
              <mxPoint x="90" y="160" />
              <mxPoint x="170" y="160" />
            </Array>
          </mxGeometry>
        </mxCell>
        <mxCell id="label16" value="1" style="edgeLabel;resizable=0;html=1;align=left;verticalAlign=top;strokeColor=default;" parent="edge2" vertex="1" connectable="0">
          <mxGeometry x="70" y="130" as="geometry" />
        </mxCell>
        <mxCell id="label17" value="medicamentoController" style="edgeLabel;resizable=0;html=1;align=left;verticalAlign=top;strokeColor=default;" parent="edge2" vertex="1" connectable="0">
          <mxGeometry x="30" y="120" as="geometry" />
        </mxCell>
        <mxCell id="node6" value="&lt;p style=&quot;margin:0px;margin-top:4px;text-align:center;&quot;&gt;&lt;b&gt;ConsultaController&lt;/b&gt;&lt;/p&gt;&lt;hr size=&quot;1&quot;&gt;&lt;p style=&quot;margin:0 0 0 4px;line-height:1.6;&quot;&gt;~ ConsultaController(): &lt;/p&gt;&lt;hr size=&quot;1&quot;&gt;&lt;p style=&quot;margin:0 0 0 4px;line-height:1.6;&quot;&gt;- medicoNaoPossuiEspecialidade(String, String): boolean&lt;br&gt;+ delete(Consulta): void&lt;br&gt;- medicoPossuiConsultaConflitante(LocalDateTime, String): boolean&lt;br&gt;+ listAll(): List&amp;lt;Consulta&amp;gt;&lt;br&gt;+ create(String, Date, LocalDateTime, LocalDateTime, String, String, double,&amp;nbsp;&lt;/p&gt;&lt;p style=&quot;margin:0 0 0 4px;line-height:1.6;&quot;&gt;StatusConsulta, ArrayList&amp;lt;Integer&amp;gt;, ArrayList&amp;lt;Integer&amp;gt;): void&lt;br&gt;+ update(Consulta): void&lt;br&gt;+ read(int): Consulta&lt;br&gt;- pacientePossuiConsultaNoDia(String): boolean&lt;br&gt;+ delete(int): void&lt;/p&gt;" style="verticalAlign=top;align=left;overflow=fill;fontSize=14;fontFamily=Helvetica;html=1;rounded=0;shadow=0;comic=0;labelBackgroundColor=none;strokeWidth=1;" parent="1" vertex="1">
          <mxGeometry x="214" y="-120" width="454" height="295" as="geometry" />
        </mxCell>
        <mxCell id="3GtSO3E3ttd47XfmLNBS-12" value="" style="html=1;rounded=1;edgeStyle=orthogonalEdgeStyle;dashed=0;startArrow=diamondThinstartSize=12;endArrow=openThin;endSize=12;strokeColor=#595959;" parent="1" source="node6" target="node20" edge="1">
          <mxGeometry width="50" height="50" relative="1" as="geometry">
            <Array as="points">
              <mxPoint x="120" y="20" />
              <mxPoint x="120" y="20" />
            </Array>
            <mxPoint x="474" y="280" as="sourcePoint" />
            <mxPoint x="515" y="319" as="targetPoint" />
          </mxGeometry>
        </mxCell>
        <mxCell id="3GtSO3E3ttd47XfmLNBS-13" value="1" style="edgeLabel;resizable=0;html=1;align=left;verticalAlign=top;strokeColor=default;" parent="3GtSO3E3ttd47XfmLNBS-12" vertex="1" connectable="0">
          <mxGeometry x="458" y="257" as="geometry" />
        </mxCell>
        <mxCell id="3GtSO3E3ttd47XfmLNBS-14" value="1" style="edgeLabel;resizable=0;html=1;align=left;verticalAlign=top;strokeColor=default;" parent="3GtSO3E3ttd47XfmLNBS-12" vertex="1" connectable="0">
          <mxGeometry x="458" y="257" as="geometry" />
        </mxCell>
        <mxCell id="3GtSO3E3ttd47XfmLNBS-15" value="medicoController" style="edgeLabel;resizable=0;html=1;align=left;verticalAlign=top;strokeColor=default;" parent="3GtSO3E3ttd47XfmLNBS-12" vertex="1" connectable="0">
          <mxGeometry x="480" y="257" as="geometry" />
        </mxCell>
        <mxCell id="3GtSO3E3ttd47XfmLNBS-16" value="prescricaoController" style="edgeLabel;html=1;align=center;verticalAlign=middle;resizable=0;points=[];fontFamily=Helvetica;fontSize=11;fontColor=default;labelBackgroundColor=default;rotation=-90;" parent="3GtSO3E3ttd47XfmLNBS-12" vertex="1" connectable="0">
          <mxGeometry x="-0.4607" y="-2" relative="1" as="geometry">
            <mxPoint x="-13" as="offset" />
          </mxGeometry>
        </mxCell>
        <mxCell id="3GtSO3E3ttd47XfmLNBS-17" value="1" style="edgeLabel;html=1;align=center;verticalAlign=middle;resizable=0;points=[];fontFamily=Helvetica;fontSize=11;fontColor=default;labelBackgroundColor=default;" parent="3GtSO3E3ttd47XfmLNBS-12" vertex="1" connectable="0">
          <mxGeometry x="-0.5218" y="-1" relative="1" as="geometry">
            <mxPoint as="offset" />
          </mxGeometry>
        </mxCell>
        <mxCell id="node12" value="&lt;p style=&quot;margin:0px;margin-top:4px;text-align:center;&quot;&gt;&lt;b&gt;ExameController&lt;/b&gt;&lt;/p&gt;&lt;hr size=&quot;1&quot;/&gt;&lt;p style=&quot;margin:0 0 0 4px;line-height:1.6;&quot;&gt;~ ExameController(): &lt;/p&gt;&lt;hr size=&quot;1&quot;/&gt;&lt;p style=&quot;margin:0 0 0 4px;line-height:1.6;&quot;&gt;+ read(Integer): Exame&lt;br/&gt;+ create(String, Date, Date, String, Double): void&lt;br/&gt;+ update(Exame): void&lt;br/&gt;+ delete(Integer): void&lt;br/&gt;+ listAll(): List&amp;lt;Exame&amp;gt;&lt;br/&gt;+ delete(Exame): void&lt;/p&gt;" style="verticalAlign=top;align=left;overflow=fill;fontSize=14;fontFamily=Helvetica;html=1;rounded=0;shadow=0;comic=0;labelBackgroundColor=none;strokeWidth=1;" parent="1" vertex="1">
          <mxGeometry x="-330" y="280" width="327" height="208" as="geometry" />
        </mxCell>
        <mxCell id="node11" value="&lt;p style=&quot;margin:0px;margin-top:4px;text-align:center;&quot;&gt;&lt;b&gt;MedicoController&lt;/b&gt;&lt;/p&gt;&lt;hr size=&quot;1&quot;/&gt;&lt;p style=&quot;margin:0 0 0 4px;line-height:1.6;&quot;&gt;~ MedicoController(): &lt;/p&gt;&lt;hr size=&quot;1&quot;/&gt;&lt;p style=&quot;margin:0 0 0 4px;line-height:1.6;&quot;&gt;+ medicoExiste(String): boolean&lt;br/&gt;+ create(String, String, Date, String, String): void&lt;br/&gt;+ listAll(): List&amp;lt;Medico&amp;gt;&lt;br/&gt;+ read(int): Medico&lt;br/&gt;+ update(Medico): void&lt;br/&gt;+ delete(Medico): void&lt;br/&gt;+ read(String): Medico&lt;br/&gt;+ delete(int): void&lt;/p&gt;" style="verticalAlign=top;align=left;overflow=fill;fontSize=14;fontFamily=Helvetica;html=1;rounded=0;shadow=0;comic=0;labelBackgroundColor=none;strokeWidth=1;" parent="1" vertex="1">
          <mxGeometry x="341" y="280" width="327" height="256" as="geometry" />
        </mxCell>
        <mxCell id="edge46" value="" style="html=1;rounded=1;edgeStyle=orthogonalEdgeStyle;dashed=0;startArrow=diamondThinstartSize=12;endArrow=openThin;endSize=12;strokeColor=#595959;" parent="1" source="node6" target="node11" edge="1">
          <mxGeometry width="50" height="50" relative="1" as="geometry">
            <Array as="points">
              <mxPoint x="441" y="240" />
              <mxPoint x="441" y="240" />
            </Array>
          </mxGeometry>
        </mxCell>
        <mxCell id="label276" value="1" style="edgeLabel;resizable=0;html=1;align=left;verticalAlign=top;strokeColor=default;" parent="edge46" vertex="1" connectable="0">
          <mxGeometry x="458" y="257" as="geometry" />
        </mxCell>
        <mxCell id="label280" value="1" style="edgeLabel;resizable=0;html=1;align=left;verticalAlign=top;strokeColor=default;" parent="edge46" vertex="1" connectable="0">
          <mxGeometry x="440" y="170" as="geometry" />
        </mxCell>
        <mxCell id="label281" value="medicoController" style="edgeLabel;resizable=0;html=1;align=left;verticalAlign=top;strokeColor=default;" parent="edge46" vertex="1" connectable="0">
          <mxGeometry x="410" y="190" as="geometry" />
        </mxCell>
        <mxCell id="node17" value="&lt;p style=&quot;margin:0px;margin-top:4px;text-align:center;&quot;&gt;&lt;b&gt;PacienteController&lt;/b&gt;&lt;/p&gt;&lt;hr size=&quot;1&quot;/&gt;&lt;p style=&quot;margin:0 0 0 4px;line-height:1.6;&quot;&gt;~ PacienteController(): &lt;/p&gt;&lt;hr size=&quot;1&quot;/&gt;&lt;p style=&quot;margin:0 0 0 4px;line-height:1.6;&quot;&gt;+ pacienteExiste(String): boolean&lt;br/&gt;+ create(String, String, Date): void&lt;br/&gt;+ delete(Paciente): void&lt;br/&gt;+ delete(int): void&lt;br/&gt;+ update(Paciente): void&lt;br/&gt;+ read(String): Paciente&lt;br/&gt;+ read(int): Paciente&lt;br/&gt;+ listAll(): List&amp;lt;Paciente&amp;gt;&lt;/p&gt;" style="verticalAlign=top;align=left;overflow=fill;fontSize=14;fontFamily=Helvetica;html=1;rounded=0;shadow=0;comic=0;labelBackgroundColor=none;strokeWidth=1;" parent="1" vertex="1">
          <mxGeometry x="63.5" y="550" width="241" height="256" as="geometry" />
        </mxCell>
        <mxCell id="3GtSO3E3ttd47XfmLNBS-7" value="" style="html=1;rounded=1;edgeStyle=orthogonalEdgeStyle;dashed=0;startArrow=diamondThinstartSize=12;endArrow=openThin;endSize=12;strokeColor=#595959;" parent="1" source="node6" target="node17" edge="1">
          <mxGeometry width="160" relative="1" as="geometry">
            <mxPoint x="260" y="560" as="sourcePoint" />
            <mxPoint x="420" y="560" as="targetPoint" />
            <Array as="points">
              <mxPoint x="330" y="678" />
            </Array>
          </mxGeometry>
        </mxCell>
        <mxCell id="3GtSO3E3ttd47XfmLNBS-9" value="&lt;div&gt;1&lt;/div&gt;pacienteController" style="edgeLabel;html=1;align=center;verticalAlign=middle;resizable=0;points=[];fontFamily=Helvetica;fontSize=11;fontColor=default;labelBackgroundColor=default;" parent="3GtSO3E3ttd47XfmLNBS-7" vertex="1" connectable="0">
          <mxGeometry x="-0.8773" y="3" relative="1" as="geometry">
            <mxPoint x="-3" y="-7" as="offset" />
          </mxGeometry>
        </mxCell>
        <mxCell id="3GtSO3E3ttd47XfmLNBS-56" value="" style="html=1;rounded=1;edgeStyle=orthogonalEdgeStyle;dashed=0;startArrow=diamondThinstartSize=12;endArrow=openThin;endSize=12;strokeColor=#595959;" parent="1" source="node6" target="node16" edge="1">
          <mxGeometry width="50" height="50" relative="1" as="geometry">
            <Array as="points">
              <mxPoint x="360" y="-250" />
              <mxPoint x="-420" y="-250" />
              <mxPoint x="-420" y="1340" />
              <mxPoint x="630" y="1340" />
              <mxPoint x="630" y="1940" />
            </Array>
            <mxPoint x="224" y="38" as="sourcePoint" />
            <mxPoint x="370" y="1430" as="targetPoint" />
          </mxGeometry>
        </mxCell>
        <mxCell id="3GtSO3E3ttd47XfmLNBS-57" value="1" style="edgeLabel;resizable=0;html=1;align=left;verticalAlign=top;strokeColor=default;" parent="3GtSO3E3ttd47XfmLNBS-56" vertex="1" connectable="0">
          <mxGeometry x="458" y="257" as="geometry" />
        </mxCell>
        <mxCell id="3GtSO3E3ttd47XfmLNBS-58" value="1" style="edgeLabel;resizable=0;html=1;align=left;verticalAlign=top;strokeColor=default;" parent="3GtSO3E3ttd47XfmLNBS-56" vertex="1" connectable="0">
          <mxGeometry x="458" y="257" as="geometry" />
        </mxCell>
        <mxCell id="3GtSO3E3ttd47XfmLNBS-59" value="medicoController" style="edgeLabel;resizable=0;html=1;align=left;verticalAlign=top;strokeColor=default;" parent="3GtSO3E3ttd47XfmLNBS-56" vertex="1" connectable="0">
          <mxGeometry x="480" y="257" as="geometry" />
        </mxCell>
        <mxCell id="3GtSO3E3ttd47XfmLNBS-63" value="&lt;div&gt;1&lt;/div&gt;repository" style="edgeLabel;html=1;align=center;verticalAlign=middle;resizable=0;points=[];fontFamily=Helvetica;fontSize=11;fontColor=default;labelBackgroundColor=default;" parent="3GtSO3E3ttd47XfmLNBS-56" vertex="1" connectable="0">
          <mxGeometry x="-0.9884" y="1" relative="1" as="geometry">
            <mxPoint y="6" as="offset" />
          </mxGeometry>
        </mxCell>
        <mxCell id="3GtSO3E3ttd47XfmLNBS-65" value="" style="html=1;rounded=1;edgeStyle=orthogonalEdgeStyle;dashed=0;startArrow=diamondThinstartSize=12;endArrow=openThin;endSize=12;strokeColor=#595959;" parent="1" source="node20" target="node12" edge="1">
          <mxGeometry width="50" height="50" relative="1" as="geometry">
            <Array as="points">
              <mxPoint x="-160" y="150" />
              <mxPoint x="-160" y="150" />
            </Array>
            <mxPoint x="100" y="125" as="sourcePoint" />
            <mxPoint x="180" y="290" as="targetPoint" />
          </mxGeometry>
        </mxCell>
        <mxCell id="3GtSO3E3ttd47XfmLNBS-66" value="1" style="edgeLabel;resizable=0;html=1;align=left;verticalAlign=top;strokeColor=default;" parent="3GtSO3E3ttd47XfmLNBS-65" vertex="1" connectable="0">
          <mxGeometry x="70" y="130" as="geometry" />
        </mxCell>
        <mxCell id="3GtSO3E3ttd47XfmLNBS-67" value="medicamentoController" style="edgeLabel;resizable=0;html=1;align=left;verticalAlign=top;strokeColor=default;" parent="3GtSO3E3ttd47XfmLNBS-65" vertex="1" connectable="0">
          <mxGeometry x="30" y="120" as="geometry" />
        </mxCell>
        <mxCell id="3GtSO3E3ttd47XfmLNBS-68" value="exameController" style="edgeLabel;html=1;align=center;verticalAlign=middle;resizable=0;points=[];fontFamily=Helvetica;fontSize=11;fontColor=default;labelBackgroundColor=default;" parent="3GtSO3E3ttd47XfmLNBS-65" vertex="1" connectable="0">
          <mxGeometry x="-0.6739" y="3" relative="1" as="geometry">
            <mxPoint x="-3" as="offset" />
          </mxGeometry>
        </mxCell>
        <mxCell id="3GtSO3E3ttd47XfmLNBS-69" value="1" style="text;html=1;align=center;verticalAlign=middle;resizable=0;points=[];autosize=1;strokeColor=none;fillColor=none;fontFamily=Helvetica;fontSize=11;fontColor=default;labelBackgroundColor=default;" parent="1" vertex="1">
          <mxGeometry x="-175" y="108" width="30" height="30" as="geometry" />
        </mxCell>
        <mxCell id="3GtSO3E3ttd47XfmLNBS-86" value="" style="html=1;rounded=1;edgeStyle=orthogonalEdgeStyle;dashed=0;startArrow=none;endArrow=block;endSize=12;strokeColor=#000082;" parent="1" source="node22" target="node21" edge="1">
          <mxGeometry width="50" height="50" relative="1" as="geometry">
            <Array as="points">
              <mxPoint x="1340" y="600" />
              <mxPoint x="1340" y="911" />
            </Array>
            <mxPoint x="1330" y="1440" as="sourcePoint" />
            <mxPoint x="1216" y="1539" as="targetPoint" />
          </mxGeometry>
        </mxCell>
        <mxCell id="3GtSO3E3ttd47XfmLNBS-88" value="extends" style="edgeLabel;html=1;align=center;verticalAlign=middle;resizable=0;points=[];fontFamily=Helvetica;fontSize=11;fontColor=default;labelBackgroundColor=default;" parent="3GtSO3E3ttd47XfmLNBS-86" vertex="1" connectable="0">
          <mxGeometry x="-0.874" relative="1" as="geometry">
            <mxPoint as="offset" />
          </mxGeometry>
        </mxCell>
        <mxCell id="3GtSO3E3ttd47XfmLNBS-89" value="" style="html=1;rounded=1;edgeStyle=orthogonalEdgeStyle;dashed=0;startArrow=diamondThinstartSize=12;endArrow=openThin;endSize=12;strokeColor=#595959;" parent="1" source="node2" target="node24" edge="1">
          <mxGeometry width="50" height="50" relative="1" as="geometry">
            <Array as="points">
              <mxPoint x="1167" y="250" />
              <mxPoint x="1167" y="250" />
            </Array>
            <mxPoint x="1760" y="650" as="sourcePoint" />
            <mxPoint x="1167" y="490" as="targetPoint" />
          </mxGeometry>
        </mxCell>
        <mxCell id="3GtSO3E3ttd47XfmLNBS-90" value="1" style="edgeLabel;resizable=0;html=1;align=left;verticalAlign=top;strokeColor=default;" parent="3GtSO3E3ttd47XfmLNBS-89" vertex="1" connectable="0">
          <mxGeometry x="1690" y="640" as="geometry">
            <mxPoint x="69" as="offset" />
          </mxGeometry>
        </mxCell>
        <mxCell id="3GtSO3E3ttd47XfmLNBS-91" value="prescricaoDaConsulta" style="edgeLabel;resizable=0;html=1;align=left;verticalAlign=top;strokeColor=default;" parent="3GtSO3E3ttd47XfmLNBS-89" vertex="1" connectable="0">
          <mxGeometry x="1670" y="650" as="geometry" />
        </mxCell>
        <mxCell id="3GtSO3E3ttd47XfmLNBS-92" value="examesPrescritos" style="edgeLabel;html=1;align=center;verticalAlign=middle;resizable=0;points=[];fontFamily=Helvetica;fontSize=11;fontColor=default;labelBackgroundColor=default;" parent="3GtSO3E3ttd47XfmLNBS-89" vertex="1" connectable="0">
          <mxGeometry x="-0.3933" relative="1" as="geometry">
            <mxPoint x="-57" as="offset" />
          </mxGeometry>
        </mxCell>
        <mxCell id="3GtSO3E3ttd47XfmLNBS-93" value="*" style="edgeLabel;html=1;align=center;verticalAlign=middle;resizable=0;points=[];fontFamily=Helvetica;fontSize=11;fontColor=default;labelBackgroundColor=default;" parent="3GtSO3E3ttd47XfmLNBS-89" vertex="1" connectable="0">
          <mxGeometry x="-0.3933" relative="1" as="geometry">
            <mxPoint x="13" as="offset" />
          </mxGeometry>
        </mxCell>
        <mxCell id="3GtSO3E3ttd47XfmLNBS-94" value="" style="html=1;rounded=1;edgeStyle=orthogonalEdgeStyle;dashed=0;startArrow=diamondThinstartSize=12;endArrow=openThin;endSize=12;strokeColor=#595959;" parent="1" source="node2" target="node15" edge="1">
          <mxGeometry width="50" height="50" relative="1" as="geometry">
            <Array as="points">
              <mxPoint x="810" y="365" />
              <mxPoint x="810" y="1180" />
            </Array>
            <mxPoint x="1167" y="260" as="sourcePoint" />
            <mxPoint x="1167" y="233" as="targetPoint" />
          </mxGeometry>
        </mxCell>
        <mxCell id="3GtSO3E3ttd47XfmLNBS-95" value="1" style="edgeLabel;resizable=0;html=1;align=left;verticalAlign=top;strokeColor=default;" parent="3GtSO3E3ttd47XfmLNBS-94" vertex="1" connectable="0">
          <mxGeometry x="1690" y="640" as="geometry">
            <mxPoint x="69" as="offset" />
          </mxGeometry>
        </mxCell>
        <mxCell id="3GtSO3E3ttd47XfmLNBS-96" value="prescricaoDaConsulta" style="edgeLabel;resizable=0;html=1;align=left;verticalAlign=top;strokeColor=default;" parent="3GtSO3E3ttd47XfmLNBS-94" vertex="1" connectable="0">
          <mxGeometry x="1670" y="650" as="geometry" />
        </mxCell>
        <mxCell id="3GtSO3E3ttd47XfmLNBS-99" value="medicamentosPrescritos" style="edgeLabel;html=1;align=center;verticalAlign=middle;resizable=0;points=[];fontFamily=Helvetica;fontSize=11;fontColor=default;labelBackgroundColor=default;" parent="3GtSO3E3ttd47XfmLNBS-94" vertex="1" connectable="0">
          <mxGeometry x="-0.912" y="1" relative="1" as="geometry">
            <mxPoint x="-23" y="-6" as="offset" />
          </mxGeometry>
        </mxCell>
        <mxCell id="3GtSO3E3ttd47XfmLNBS-100" value="*" style="edgeLabel;html=1;align=center;verticalAlign=middle;resizable=0;points=[];fontFamily=Helvetica;fontSize=11;fontColor=default;labelBackgroundColor=default;" parent="3GtSO3E3ttd47XfmLNBS-94" vertex="1" connectable="0">
          <mxGeometry x="-0.9833" y="-3" relative="1" as="geometry">
            <mxPoint y="18" as="offset" />
          </mxGeometry>
        </mxCell>
        <mxCell id="piTqAlaF3GWimsGXBwTf-18" value="" style="html=1;rounded=1;edgeStyle=orthogonalEdgeStyle;dashed=0;startArrow=diamondThinstartSize=12;endArrow=openThin;endSize=12;strokeColor=#595959;" parent="1" source="piTqAlaF3GWimsGXBwTf-13" target="node20" edge="1">
          <mxGeometry width="50" height="50" relative="1" as="geometry">
            <Array as="points">
              <mxPoint x="1440" y="2830" />
              <mxPoint x="-420" y="2830" />
              <mxPoint x="-420" y="-250" />
              <mxPoint x="-110" y="-250" />
            </Array>
            <mxPoint x="1330" y="2410" as="sourcePoint" />
            <mxPoint x="515" y="546" as="targetPoint" />
          </mxGeometry>
        </mxCell>
        <mxCell id="piTqAlaF3GWimsGXBwTf-19" value="1" style="edgeLabel;resizable=0;html=1;align=left;verticalAlign=top;strokeColor=default;" parent="piTqAlaF3GWimsGXBwTf-18" vertex="1" connectable="0">
          <mxGeometry x="991" y="1997" as="geometry" />
        </mxCell>
        <mxCell id="piTqAlaF3GWimsGXBwTf-20" value="1" style="edgeLabel;resizable=0;html=1;align=left;verticalAlign=top;strokeColor=default;" parent="piTqAlaF3GWimsGXBwTf-18" vertex="1" connectable="0">
          <mxGeometry x="991" y="1997" as="geometry" />
        </mxCell>
        <mxCell id="piTqAlaF3GWimsGXBwTf-22" value="consultaController" style="edgeLabel;html=1;align=center;verticalAlign=middle;resizable=0;points=[];" parent="piTqAlaF3GWimsGXBwTf-18" vertex="1" connectable="0">
          <mxGeometry x="-0.99" y="1" relative="1" as="geometry">
            <mxPoint as="offset" />
          </mxGeometry>
        </mxCell>
        <mxCell id="piTqAlaF3GWimsGXBwTf-23" value="1" style="edgeLabel;html=1;align=center;verticalAlign=middle;resizable=0;points=[];" parent="piTqAlaF3GWimsGXBwTf-18" vertex="1" connectable="0">
          <mxGeometry x="-0.9834" relative="1" as="geometry">
            <mxPoint as="offset" />
          </mxGeometry>
        </mxCell>
        <mxCell id="piTqAlaF3GWimsGXBwTf-24" value="" style="html=1;rounded=1;edgeStyle=orthogonalEdgeStyle;dashed=0;startArrow=diamondThinstartSize=12;endArrow=openThin;endSize=12;strokeColor=#595959;" parent="1" source="piTqAlaF3GWimsGXBwTf-13" target="node20" edge="1">
          <mxGeometry width="50" height="50" relative="1" as="geometry">
            <Array as="points">
              <mxPoint x="1320" y="2830" />
              <mxPoint x="-420" y="2830" />
              <mxPoint x="-420" y="-250" />
              <mxPoint x="-110" y="-250" />
            </Array>
            <mxPoint x="1450" y="2460" as="sourcePoint" />
            <mxPoint x="-93" y="-110" as="targetPoint" />
          </mxGeometry>
        </mxCell>
        <mxCell id="piTqAlaF3GWimsGXBwTf-25" value="1" style="edgeLabel;resizable=0;html=1;align=left;verticalAlign=top;strokeColor=default;" parent="piTqAlaF3GWimsGXBwTf-24" vertex="1" connectable="0">
          <mxGeometry x="991" y="1997" as="geometry" />
        </mxCell>
        <mxCell id="piTqAlaF3GWimsGXBwTf-26" value="1" style="edgeLabel;resizable=0;html=1;align=left;verticalAlign=top;strokeColor=default;" parent="piTqAlaF3GWimsGXBwTf-24" vertex="1" connectable="0">
          <mxGeometry x="991" y="1997" as="geometry" />
        </mxCell>
        <mxCell id="piTqAlaF3GWimsGXBwTf-28" value="prescricaoController" style="edgeLabel;html=1;align=center;verticalAlign=middle;resizable=0;points=[];" parent="piTqAlaF3GWimsGXBwTf-24" vertex="1" connectable="0">
          <mxGeometry x="-0.99" y="1" relative="1" as="geometry">
            <mxPoint as="offset" />
          </mxGeometry>
        </mxCell>
        <mxCell id="piTqAlaF3GWimsGXBwTf-29" value="1" style="edgeLabel;html=1;align=center;verticalAlign=middle;resizable=0;points=[];" parent="piTqAlaF3GWimsGXBwTf-24" vertex="1" connectable="0">
          <mxGeometry x="-0.9834" relative="1" as="geometry">
            <mxPoint as="offset" />
          </mxGeometry>
        </mxCell>
        <mxCell id="piTqAlaF3GWimsGXBwTf-34" value="" style="html=1;rounded=1;edgeStyle=orthogonalEdgeStyle;dashed=0;startArrow=diamondThinstartSize=12;endArrow=openThin;endSize=12;strokeColor=#595959;" parent="1" source="node10" target="node12" edge="1">
          <mxGeometry width="50" height="50" relative="1" as="geometry">
            <Array as="points">
              <mxPoint x="1960" y="2313" />
              <mxPoint x="1960" y="2830" />
              <mxPoint x="-420" y="2830" />
              <mxPoint x="-420" y="384" />
            </Array>
            <mxPoint x="180" y="290" as="targetPoint" />
            <mxPoint x="1603" y="1837" as="sourcePoint" />
          </mxGeometry>
        </mxCell>
        <mxCell id="piTqAlaF3GWimsGXBwTf-35" value="1" style="edgeLabel;resizable=0;html=1;align=left;verticalAlign=top;strokeColor=default;" parent="piTqAlaF3GWimsGXBwTf-34" vertex="1" connectable="0">
          <mxGeometry x="1930" y="1760" as="geometry" />
        </mxCell>
        <mxCell id="piTqAlaF3GWimsGXBwTf-36" value="medicamentoController" style="edgeLabel;resizable=0;html=1;align=left;verticalAlign=top;strokeColor=default;" parent="piTqAlaF3GWimsGXBwTf-34" vertex="1" connectable="0">
          <mxGeometry x="1810" y="1760" as="geometry" />
        </mxCell>
        <mxCell id="piTqAlaF3GWimsGXBwTf-37" value="controler" style="edgeLabel;html=1;align=center;verticalAlign=middle;resizable=0;points=[];" parent="piTqAlaF3GWimsGXBwTf-34" vertex="1" connectable="0">
          <mxGeometry x="-0.9942" y="-3" relative="1" as="geometry">
            <mxPoint x="14" as="offset" />
          </mxGeometry>
        </mxCell>
        <mxCell id="piTqAlaF3GWimsGXBwTf-38" value="1" style="edgeLabel;html=1;align=center;verticalAlign=middle;resizable=0;points=[];" parent="piTqAlaF3GWimsGXBwTf-34" vertex="1" connectable="0">
          <mxGeometry x="-0.9761" y="-3" relative="1" as="geometry">
            <mxPoint as="offset" />
          </mxGeometry>
        </mxCell>
        <mxCell id="piTqAlaF3GWimsGXBwTf-1" value="" style="html=1;rounded=1;edgeStyle=orthogonalEdgeStyle;dashed=0;startArrow=diamondThinstartSize=12;endArrow=openThin;endSize=12;strokeColor=#595959;" parent="1" source="node13" target="node5" edge="1">
          <mxGeometry width="50" height="50" relative="1" as="geometry">
            <Array as="points">
              <mxPoint x="630" y="1990" />
              <mxPoint x="630" y="1340" />
              <mxPoint x="-420" y="1340" />
              <mxPoint x="-420" y="230" />
              <mxPoint x="170" y="230" />
            </Array>
            <mxPoint x="2040" y="1738" as="sourcePoint" />
            <mxPoint x="504" y="536" as="targetPoint" />
          </mxGeometry>
        </mxCell>
        <mxCell id="piTqAlaF3GWimsGXBwTf-2" value="1" style="edgeLabel;resizable=0;html=1;align=left;verticalAlign=top;strokeColor=default;" parent="piTqAlaF3GWimsGXBwTf-1" vertex="1" connectable="0">
          <mxGeometry x="991" y="1997" as="geometry" />
        </mxCell>
        <mxCell id="piTqAlaF3GWimsGXBwTf-3" value="1" style="edgeLabel;resizable=0;html=1;align=left;verticalAlign=top;strokeColor=default;" parent="piTqAlaF3GWimsGXBwTf-1" vertex="1" connectable="0">
          <mxGeometry x="991" y="1997" as="geometry" />
        </mxCell>
        <mxCell id="piTqAlaF3GWimsGXBwTf-39" value="controller" style="edgeLabel;html=1;align=center;verticalAlign=middle;resizable=0;points=[];" parent="piTqAlaF3GWimsGXBwTf-1" vertex="1" connectable="0">
          <mxGeometry x="-0.973" y="1" relative="1" as="geometry">
            <mxPoint x="5" as="offset" />
          </mxGeometry>
        </mxCell>
        <mxCell id="piTqAlaF3GWimsGXBwTf-40" value="1" style="edgeLabel;html=1;align=center;verticalAlign=middle;resizable=0;points=[];" parent="piTqAlaF3GWimsGXBwTf-1" vertex="1" connectable="0">
          <mxGeometry x="-0.9927" y="1" relative="1" as="geometry">
            <mxPoint as="offset" />
          </mxGeometry>
        </mxCell>
        <mxCell id="piTqAlaF3GWimsGXBwTf-41" value="" style="html=1;rounded=1;edgeStyle=orthogonalEdgeStyle;dashed=0;startArrow=diamondThinstartSize=12;endArrow=openThin;endSize=12;strokeColor=#595959;" parent="1" source="node25" target="node11" edge="1">
          <mxGeometry width="50" height="50" relative="1" as="geometry">
            <Array as="points">
              <mxPoint x="630" y="2320" />
              <mxPoint x="630" y="1180" />
              <mxPoint x="810" y="1180" />
              <mxPoint x="810" y="460" />
            </Array>
            <mxPoint x="950" y="2000" as="sourcePoint" />
            <mxPoint x="180" y="290" as="targetPoint" />
          </mxGeometry>
        </mxCell>
        <mxCell id="piTqAlaF3GWimsGXBwTf-42" value="1" style="edgeLabel;resizable=0;html=1;align=left;verticalAlign=top;strokeColor=default;" parent="piTqAlaF3GWimsGXBwTf-41" vertex="1" connectable="0">
          <mxGeometry x="991" y="1997" as="geometry" />
        </mxCell>
        <mxCell id="piTqAlaF3GWimsGXBwTf-43" value="1" style="edgeLabel;resizable=0;html=1;align=left;verticalAlign=top;strokeColor=default;" parent="piTqAlaF3GWimsGXBwTf-41" vertex="1" connectable="0">
          <mxGeometry x="991" y="1997" as="geometry" />
        </mxCell>
        <mxCell id="piTqAlaF3GWimsGXBwTf-44" value="controller" style="edgeLabel;html=1;align=center;verticalAlign=middle;resizable=0;points=[];" parent="piTqAlaF3GWimsGXBwTf-41" vertex="1" connectable="0">
          <mxGeometry x="-0.973" y="1" relative="1" as="geometry">
            <mxPoint x="-7" as="offset" />
          </mxGeometry>
        </mxCell>
        <mxCell id="piTqAlaF3GWimsGXBwTf-45" value="1" style="edgeLabel;html=1;align=center;verticalAlign=middle;resizable=0;points=[];" parent="piTqAlaF3GWimsGXBwTf-41" vertex="1" connectable="0">
          <mxGeometry x="-0.9927" y="1" relative="1" as="geometry">
            <mxPoint as="offset" />
          </mxGeometry>
        </mxCell>
        <mxCell id="piTqAlaF3GWimsGXBwTf-49" value="" style="html=1;rounded=1;edgeStyle=orthogonalEdgeStyle;dashed=0;startArrow=diamondThinstartSize=12;endArrow=openThin;endSize=12;strokeColor=#595959;exitX=1.000;exitY=0.629;exitDx=0;exitDy=0;" parent="1" target="node17" edge="1">
          <mxGeometry width="50" height="50" relative="1" as="geometry">
            <Array as="points">
              <mxPoint x="1959" y="1994" />
              <mxPoint x="1959" y="-250" />
              <mxPoint x="-420" y="-250" />
              <mxPoint x="-420" y="630" />
            </Array>
            <mxPoint x="1819" y="1994" as="sourcePoint" />
            <mxPoint x="500" y="-160" as="targetPoint" />
          </mxGeometry>
        </mxCell>
        <mxCell id="piTqAlaF3GWimsGXBwTf-50" value="controller" style="edgeLabel;html=1;align=center;verticalAlign=middle;resizable=0;points=[];" parent="piTqAlaF3GWimsGXBwTf-49" vertex="1" connectable="0">
          <mxGeometry x="-0.9803" y="-2" relative="1" as="geometry">
            <mxPoint x="10" as="offset" />
          </mxGeometry>
        </mxCell>
        <mxCell id="piTqAlaF3GWimsGXBwTf-51" value="1" style="edgeLabel;html=1;align=center;verticalAlign=middle;resizable=0;points=[];" parent="piTqAlaF3GWimsGXBwTf-49" vertex="1" connectable="0">
          <mxGeometry x="-0.9456" y="-4" relative="1" as="geometry">
            <mxPoint x="-43" y="32" as="offset" />
          </mxGeometry>
        </mxCell>
        <mxCell id="piTqAlaF3GWimsGXBwTf-52" value="" style="html=1;rounded=1;edgeStyle=orthogonalEdgeStyle;dashed=0;startArrow=diamondThinstartSize=12;endArrow=openThin;endSize=12;strokeColor=#595959;" parent="1" source="node0" target="node17" edge="1">
          <mxGeometry width="50" height="50" relative="1" as="geometry">
            <Array as="points">
              <mxPoint x="180" y="870" />
              <mxPoint x="180" y="870" />
            </Array>
            <mxPoint x="-320" y="360" as="sourcePoint" />
            <mxPoint x="200" y="1600" as="targetPoint" />
          </mxGeometry>
        </mxCell>
        <mxCell id="piTqAlaF3GWimsGXBwTf-53" value="1" style="edgeLabel;resizable=0;html=1;align=left;verticalAlign=top;strokeColor=default;" parent="piTqAlaF3GWimsGXBwTf-52" vertex="1" connectable="0">
          <mxGeometry x="-350" y="320" as="geometry" />
        </mxCell>
        <mxCell id="piTqAlaF3GWimsGXBwTf-54" value="repository" style="edgeLabel;resizable=0;html=1;align=left;verticalAlign=top;strokeColor=default;" parent="piTqAlaF3GWimsGXBwTf-52" vertex="1" connectable="0">
          <mxGeometry x="-390" y="340" as="geometry" />
        </mxCell>
        <mxCell id="piTqAlaF3GWimsGXBwTf-55" value="pacienteController" style="edgeLabel;html=1;align=center;verticalAlign=middle;resizable=0;points=[];" parent="piTqAlaF3GWimsGXBwTf-52" vertex="1" connectable="0">
          <mxGeometry x="-0.7697" y="1" relative="1" as="geometry">
            <mxPoint x="-1" y="19" as="offset" />
          </mxGeometry>
        </mxCell>
        <mxCell id="piTqAlaF3GWimsGXBwTf-56" value="1" style="edgeLabel;html=1;align=center;verticalAlign=middle;resizable=0;points=[];" parent="piTqAlaF3GWimsGXBwTf-52" vertex="1" connectable="0">
          <mxGeometry x="-0.8583" y="3" relative="1" as="geometry">
            <mxPoint y="-12" as="offset" />
          </mxGeometry>
        </mxCell>
        <mxCell id="piTqAlaF3GWimsGXBwTf-57" value="" style="html=1;rounded=1;edgeStyle=orthogonalEdgeStyle;dashed=0;startArrow=diamondThinstartSize=12;endArrow=openThin;endSize=12;strokeColor=#595959;" parent="1" source="node0" target="node11" edge="1">
          <mxGeometry width="50" height="50" relative="1" as="geometry">
            <Array as="points">
              <mxPoint x="505" y="1150" />
            </Array>
            <mxPoint x="190" y="1070" as="sourcePoint" />
            <mxPoint x="190" y="816" as="targetPoint" />
          </mxGeometry>
        </mxCell>
        <mxCell id="piTqAlaF3GWimsGXBwTf-58" value="1" style="edgeLabel;resizable=0;html=1;align=left;verticalAlign=top;strokeColor=default;" parent="piTqAlaF3GWimsGXBwTf-57" vertex="1" connectable="0">
          <mxGeometry x="-350" y="320" as="geometry" />
        </mxCell>
        <mxCell id="piTqAlaF3GWimsGXBwTf-59" value="repository" style="edgeLabel;resizable=0;html=1;align=left;verticalAlign=top;strokeColor=default;" parent="piTqAlaF3GWimsGXBwTf-57" vertex="1" connectable="0">
          <mxGeometry x="-390" y="340" as="geometry" />
        </mxCell>
        <mxCell id="piTqAlaF3GWimsGXBwTf-60" value="medicoController" style="edgeLabel;html=1;align=center;verticalAlign=middle;resizable=0;points=[];" parent="piTqAlaF3GWimsGXBwTf-57" vertex="1" connectable="0">
          <mxGeometry x="-0.7697" y="1" relative="1" as="geometry">
            <mxPoint x="-31" y="6" as="offset" />
          </mxGeometry>
        </mxCell>
        <mxCell id="piTqAlaF3GWimsGXBwTf-61" value="1" style="edgeLabel;html=1;align=center;verticalAlign=middle;resizable=0;points=[];" parent="piTqAlaF3GWimsGXBwTf-57" vertex="1" connectable="0">
          <mxGeometry x="-0.8583" y="3" relative="1" as="geometry">
            <mxPoint x="50" y="8" as="offset" />
          </mxGeometry>
        </mxCell>
        <mxCell id="piTqAlaF3GWimsGXBwTf-63" value="" style="html=1;rounded=1;edgeStyle=orthogonalEdgeStyle;dashed=0;startArrow=diamondThinstartSize=12;endArrow=openThin;endSize=12;strokeColor=#595959;" parent="1" source="node0" target="node12" edge="1">
          <mxGeometry width="50" height="50" relative="1" as="geometry">
            <Array as="points">
              <mxPoint x="-420" y="1090" />
              <mxPoint x="-420" y="384" />
            </Array>
            <mxPoint x="190" y="1070" as="sourcePoint" />
            <mxPoint x="190" y="816" as="targetPoint" />
          </mxGeometry>
        </mxCell>
        <mxCell id="piTqAlaF3GWimsGXBwTf-64" value="1" style="edgeLabel;resizable=0;html=1;align=left;verticalAlign=top;strokeColor=default;" parent="piTqAlaF3GWimsGXBwTf-63" vertex="1" connectable="0">
          <mxGeometry x="-350" y="320" as="geometry" />
        </mxCell>
        <mxCell id="piTqAlaF3GWimsGXBwTf-65" value="repository" style="edgeLabel;resizable=0;html=1;align=left;verticalAlign=top;strokeColor=default;" parent="piTqAlaF3GWimsGXBwTf-63" vertex="1" connectable="0">
          <mxGeometry x="-390" y="340" as="geometry" />
        </mxCell>
        <mxCell id="piTqAlaF3GWimsGXBwTf-66" value="exameController" style="edgeLabel;html=1;align=center;verticalAlign=middle;resizable=0;points=[];" parent="piTqAlaF3GWimsGXBwTf-63" vertex="1" connectable="0">
          <mxGeometry x="-0.7697" y="1" relative="1" as="geometry">
            <mxPoint x="96" y="4" as="offset" />
          </mxGeometry>
        </mxCell>
        <mxCell id="piTqAlaF3GWimsGXBwTf-67" value="1" style="edgeLabel;html=1;align=center;verticalAlign=middle;resizable=0;points=[];" parent="piTqAlaF3GWimsGXBwTf-63" vertex="1" connectable="0">
          <mxGeometry x="-0.8583" y="3" relative="1" as="geometry">
            <mxPoint x="-10" y="2" as="offset" />
          </mxGeometry>
        </mxCell>
        <mxCell id="piTqAlaF3GWimsGXBwTf-68" value="" style="html=1;rounded=1;edgeStyle=orthogonalEdgeStyle;dashed=0;startArrow=diamondThinstartSize=12;endArrow=openThin;endSize=12;strokeColor=#595959;" parent="1" source="node0" target="node20" edge="1">
          <mxGeometry width="50" height="50" relative="1" as="geometry">
            <Array as="points">
              <mxPoint x="-420" y="1150" />
              <mxPoint x="-420" y="-250" />
              <mxPoint x="-110" y="-250" />
            </Array>
            <mxPoint x="40" y="1125" as="sourcePoint" />
            <mxPoint x="-320" y="394" as="targetPoint" />
          </mxGeometry>
        </mxCell>
        <mxCell id="piTqAlaF3GWimsGXBwTf-69" value="1" style="edgeLabel;resizable=0;html=1;align=left;verticalAlign=top;strokeColor=default;" parent="piTqAlaF3GWimsGXBwTf-68" vertex="1" connectable="0">
          <mxGeometry x="-350" y="320" as="geometry" />
        </mxCell>
        <mxCell id="piTqAlaF3GWimsGXBwTf-70" value="repository" style="edgeLabel;resizable=0;html=1;align=left;verticalAlign=top;strokeColor=default;" parent="piTqAlaF3GWimsGXBwTf-68" vertex="1" connectable="0">
          <mxGeometry x="-390" y="340" as="geometry" />
        </mxCell>
        <mxCell id="piTqAlaF3GWimsGXBwTf-71" value="prescricaoController" style="edgeLabel;html=1;align=center;verticalAlign=middle;resizable=0;points=[];" parent="piTqAlaF3GWimsGXBwTf-68" vertex="1" connectable="0">
          <mxGeometry x="-0.7697" y="1" relative="1" as="geometry">
            <mxPoint x="205" y="-1" as="offset" />
          </mxGeometry>
        </mxCell>
        <mxCell id="piTqAlaF3GWimsGXBwTf-72" value="1" style="edgeLabel;html=1;align=center;verticalAlign=middle;resizable=0;points=[];" parent="piTqAlaF3GWimsGXBwTf-68" vertex="1" connectable="0">
          <mxGeometry x="-0.8583" y="3" relative="1" as="geometry">
            <mxPoint x="43" y="-3" as="offset" />
          </mxGeometry>
        </mxCell>
        <mxCell id="piTqAlaF3GWimsGXBwTf-73" value="" style="html=1;rounded=1;edgeStyle=orthogonalEdgeStyle;dashed=0;startArrow=diamondThinstartSize=12;endArrow=openThin;endSize=12;strokeColor=#595959;" parent="1" source="node0" target="node6" edge="1">
          <mxGeometry width="50" height="50" relative="1" as="geometry">
            <Array as="points">
              <mxPoint x="810" y="1090" />
              <mxPoint x="810" y="-250" />
              <mxPoint x="500" y="-250" />
            </Array>
            <mxPoint x="390" y="1160" as="sourcePoint" />
            <mxPoint x="515" y="546" as="targetPoint" />
          </mxGeometry>
        </mxCell>
        <mxCell id="piTqAlaF3GWimsGXBwTf-74" value="1" style="edgeLabel;resizable=0;html=1;align=left;verticalAlign=top;strokeColor=default;" parent="piTqAlaF3GWimsGXBwTf-73" vertex="1" connectable="0">
          <mxGeometry x="-350" y="320" as="geometry" />
        </mxCell>
        <mxCell id="piTqAlaF3GWimsGXBwTf-75" value="repository" style="edgeLabel;resizable=0;html=1;align=left;verticalAlign=top;strokeColor=default;" parent="piTqAlaF3GWimsGXBwTf-73" vertex="1" connectable="0">
          <mxGeometry x="-390" y="340" as="geometry" />
        </mxCell>
        <mxCell id="piTqAlaF3GWimsGXBwTf-76" value="consultaController" style="edgeLabel;html=1;align=center;verticalAlign=middle;resizable=0;points=[];" parent="piTqAlaF3GWimsGXBwTf-73" vertex="1" connectable="0">
          <mxGeometry x="-0.7697" y="1" relative="1" as="geometry">
            <mxPoint x="-205" y="1" as="offset" />
          </mxGeometry>
        </mxCell>
        <mxCell id="piTqAlaF3GWimsGXBwTf-77" value="1" style="edgeLabel;html=1;align=center;verticalAlign=middle;resizable=0;points=[];" parent="piTqAlaF3GWimsGXBwTf-73" vertex="1" connectable="0">
          <mxGeometry x="-0.8583" y="3" relative="1" as="geometry">
            <mxPoint x="-46" y="3" as="offset" />
          </mxGeometry>
        </mxCell>
        <mxCell id="piTqAlaF3GWimsGXBwTf-78" value="" style="html=1;rounded=1;edgeStyle=orthogonalEdgeStyle;dashed=0;startArrow=diamondThinstartSize=12;endArrow=openThin;endSize=12;strokeColor=#595959;" parent="1" source="node0" target="node5" edge="1">
          <mxGeometry width="50" height="50" relative="1" as="geometry">
            <Array as="points">
              <mxPoint x="180" y="1240" />
              <mxPoint x="-420" y="1240" />
              <mxPoint x="-420" y="-250" />
              <mxPoint x="170" y="-250" />
            </Array>
            <mxPoint x="40" y="1160" as="sourcePoint" />
            <mxPoint x="-92" y="-110" as="targetPoint" />
          </mxGeometry>
        </mxCell>
        <mxCell id="piTqAlaF3GWimsGXBwTf-79" value="1" style="edgeLabel;resizable=0;html=1;align=left;verticalAlign=top;strokeColor=default;" parent="piTqAlaF3GWimsGXBwTf-78" vertex="1" connectable="0">
          <mxGeometry x="-350" y="320" as="geometry" />
        </mxCell>
        <mxCell id="piTqAlaF3GWimsGXBwTf-80" value="repository" style="edgeLabel;resizable=0;html=1;align=left;verticalAlign=top;strokeColor=default;" parent="piTqAlaF3GWimsGXBwTf-78" vertex="1" connectable="0">
          <mxGeometry x="-390" y="340" as="geometry" />
        </mxCell>
        <mxCell id="piTqAlaF3GWimsGXBwTf-81" value="medicamentoController" style="edgeLabel;html=1;align=center;verticalAlign=middle;resizable=0;points=[];" parent="piTqAlaF3GWimsGXBwTf-78" vertex="1" connectable="0">
          <mxGeometry x="-0.7697" y="1" relative="1" as="geometry">
            <mxPoint x="324" y="-31" as="offset" />
          </mxGeometry>
        </mxCell>
        <mxCell id="piTqAlaF3GWimsGXBwTf-82" value="1" style="edgeLabel;html=1;align=center;verticalAlign=middle;resizable=0;points=[];" parent="piTqAlaF3GWimsGXBwTf-78" vertex="1" connectable="0">
          <mxGeometry x="-0.8583" y="3" relative="1" as="geometry">
            <mxPoint x="190" y="-13" as="offset" />
          </mxGeometry>
        </mxCell>
      </root>
    </mxGraphModel>
  </diagram>
</mxfile>
